<svg width="40" height="36" viewBox="0 0 40 36" fill="none" xmlns="http://www.w3.org/2000/svg"><path d="M40 33.12c0 .936-.33 1.65-.988 2.142-.66.492-1.468.738-2.426.738H3.414c-.958 0-1.767-.252-2.426-.756C.33 34.74 0 34.032 0 33.12c0-.72.216-1.452.647-2.196L17.215 1.98C18.005.66 18.94 0 20.018 0c1.078 0 1.989.66 2.731 1.98l16.604 28.98c.431.768.647 1.488.647 2.16zM22.498 14.724V9.468h-4.996v5.256c0 .336.024.654.072.954.048.3.114.636.198 1.008s.15.69.198.954l.934 5.832h2.12l.97-5.832c.049-.24.12-.552.216-.936s.168-.726.216-1.026c.048-.3.072-.618.072-.954zm0 13.932c0-.696-.246-1.284-.737-1.764a2.453 2.453 0 00-1.779-.72c-.67 0-1.252.24-1.743.72a2.371 2.371 0 00-.737 1.764c0 .696.246 1.29.737 1.782s1.072.738 1.743.738c.695 0 1.288-.246 1.779-.738a2.43 2.43 0 00.737-1.782z" fill="#7C97AA"/></svg>