<svg xmlns="http://www.w3.org/2000/svg" width="55" height="55" viewBox="0 0 55 55"><path d="M53.9 18.7l-28.9-5 .2-.1c.2-.1.3-.3.3-.5v-2.7c0-.2-.1-.4-.3-.5-.2-.1-.4-.1-.6 0L1.8 20.5c-.2.1-.3.3-.3.5v2.7c0 .2.1.4.3.5.1.1.2.1.3.1.1 0 .2 0 .2-.1l.9-.4v15.8c0 .3.3.6.6.6h47.8c.3 0 .6-.3.6-.6V22l1.5.3h.1c.1 0 .3 0 .4-.1.1-.1.2-.3.2-.4v-2.4c0-.4-.2-.6-.5-.7zM14 39H9v-8h5v8zm0-9.1H9v-5.6l5-2.3v7.9zm6.1 9.1h-4.9v-8h4.9v8zm0-9.1h-4.9v-8.4l4.9-2.3v10.7zM30.6 39h-5.1v-8.2h5.1V39zm11.6 0h-4.9v-8h4.9v8zm0-9.1h-4.9v-7.2l4.9.9v6.3zm6.2 9.1h-5v-8h5v8zm0-9.1h-5v-6.1l5 .9v5.2z" fill="#7a98ab"/></svg>