<svg xmlns="http://www.w3.org/2000/svg" width="55" height="55" viewBox="0 0 55 55"><path d="M54.1 18.7L25 13.6l.2-.1c.2-.1.3-.3.3-.5v-2.7c0-.2-.1-.4-.3-.5-.2-.1-.4-.1-.6 0l-23 10.7c-.2.1-.3.3-.3.5v2.7c0 .2.1.4.3.5.1.1.2.1.3.1.1 0 .2 0 .2-.1l.9-.4v15.9c0 .3.3.6.6.6h48.2c.3 0 .6-.3.6-.6V22l1.6.3h.1c.1 0 .3 0 .4-.1.1-.1.2-.3.2-.5v-2.4c-.1-.3-.3-.6-.6-.6zM2.4 21.4l21.9-10.2v1.4L2.4 22.8v-1.4zm1.7 1.9l18.7-8.6v24.4h-1.6V17.9c-.1-.3-.5-.4-.8-.3L7.9 23.4c-.2.1-.3.3-.3.5v15.2H4.2l-.1-15.8zM20 29.9h-5v-8.5l5-2.3v10.8zm-6.1 0H8.8v-5.6l5.1-2.4v8zm-5.1 1.2h5.1v8H8.8v-8zm6.2 0h5v8h-5v-8zm9-14l8.4 1.5c-.1.1-.2.2-.2.4v20.2h-1.6v-7.7c0-.3-.3-.6-.6-.6h-3.9c-.3 0-.6.3-.6.6v7.7H24V17.1zm2.7 22V32h2.8v7.1h-2.8zm15.6-15.6v6.4h-5v-7.3l5 .9zm6.2 1.2v5.2h-5.1v-6.2l5.1 1zm0 14.4h-5.1v-8h5.1v8zm-11.2-8h5v8h-5v-8zm13.9 8h-1.5V24.2c0-.3-.2-.5-.5-.6l-6.1-1.1c-.1 0-.2-.1-.3-.1h-.1l-6-1.1h-.5s-.1 0-.1.1c0 0-.1 0-.1.1 0 0 0 .1-.1.1v17.6h-2.7V18.9c0-.1 0-.2-.1-.2l17.8 3.1v17.3zM53.4 21L24 15.9v-1.2l29.4 5.1V21z"/></svg>