<svg xmlns="http://www.w3.org/2000/svg" width="55" height="55" viewBox="0 0 55 55"><path d="M47.3 28.2c-1.8 0-3.2 1.4-3.2 3.2 0 .8.3 1.5.7 2h-4.9V14.6c0-.1 0-.2-.1-.2-.3-3.2-1.8-6-4-8v-.1l-.1-.1c-2.3-2.1-5.3-3.4-8.6-3.4-3.4 0-6.5 1.3-8.7 3.5 0 0-.1 0-.1.1-2.2 2.1-3.6 5-3.8 8.2v18.8h-5c.5-.6.7-1.3.7-2 0-1.8-1.4-3.2-3.2-3.2s-3.2 1.4-3.2 3.2c0 1.6 1.1 2.9 2.6 3.1v18.2c0 .3.3.6.6.6h40.1c.3 0 .6-.3.6-.6v-.3c.1-.1.1-.2.1-.4V34.5c1.5-.3 2.6-1.6 2.6-3.1.1-1.8-1.3-3.2-3.1-3.2zM38.7 14H28.5l6.9-6.6c1.8 1.8 2.9 4.1 3.3 6.6zM27.8 4c2.6.1 5 1.1 6.9 2.7l-6.9 6.6V4zm-1.2 0l-.1 9.3-6.9-6.5c1.9-1.6 4.4-2.7 7-2.8zm-7.8 3.6l6.8 6.4h-9.9c.4-2.5 1.5-4.7 3.1-6.4zm-3.2 8v-.4h23.1v18.2H15.6V15.6zM7.1 33.4c-.1 0-.1 0 0 0-1.2 0-2-.9-2-2s.9-2 2-2 2 .9 2 2-.8 1.9-1.9 2h-.1zM7.6 52V34.6h8.9v17.5H7.6zm10.1 0V34.5h8.9v17.6h-8.9zm10 0V34.5h8.9v17.6h-8.9zm18.9 0h-8.8V34.6h8.8V52zm.7-18.6s-.1 0 0 0h-.2c-1-.1-1.9-1-1.9-2 0-1.1.9-2 2-2s2 .9 2 2-.8 2-1.9 2z" fill="#7a98ab"/></svg>