<svg xmlns="http://www.w3.org/2000/svg" width="55" height="55" viewBox="0 0 55 55"><path d="M47.7 28c-1.8 0-3.2 1.5-3.2 3.2 0 .8.3 1.5.8 2.1h-5V14.1c0-.1 0-.2-.1-.3-.3-3.2-1.8-6.1-4-8.2v-.1l-.1-.1C33.8 3.3 30.7 2 27.4 2c-3.4 0-6.6 1.4-8.9 3.6 0 0-.1 0-.1.1-2.2 2.1-3.7 5.1-3.9 8.3v19.2H9.2c.5-.6.8-1.3.8-2.1 0-1.8-1.5-3.2-3.2-3.2s-3.2 1.5-3.2 3.2c0 1.6 1.2 2.9 2.7 3.2v18.4c0 .3.3.6.6.6h40.9c.3 0 .6-.3.6-.6V34.4c1.6-.2 2.8-1.6 2.8-3.2-.3-1.8-1.7-3.2-3.5-3.2zm-28.4 7.6v15.5h-3.7V35.6h3.7zm5.9 0h3.7v15.5h-3.7V35.6zm9.6 0h3.7v15.5h-3.7V35.6zM15.4 15.1v-.4H39v18.6h-2.1V17H17.5v16.3h-2.1V15.1zM7.3 35.6h2.5v15.5H7.3V35.6zM47 51.1h-2.6V35.6H47v15.5z" fill="#7a98ab"/></svg>