<svg width="100" height="49" viewBox="0 0 100 49" fill="none" xmlns="http://www.w3.org/2000/svg"><path fill-rule="evenodd" clip-rule="evenodd" d="M0 48.847h48.288V0H0v48.847z" fill="#001689"/><path fill-rule="evenodd" clip-rule="evenodd" d="M14.66 15.782c.356.796.938 1.613 2.536 2.715.354.247.748.76.45 1.482-.303.721-.864 1.746-.53 2.146.339.4 1.541.607 2.519.21 0 0 .205.624.563 1.024 0 0-.169.345-.732.171 0 0 .205.513-.078 1.064 0 0-.655-.113-.937-.722 0 0-.264.474-.79.645 0 0-.431-.226-.335-1.102 0 0-.321.78-1.296.912 0 0-.564-.72.168-1.69 0 0-.526.475-1.48.247 0 0-.153-.493.71-1.177 0 0-.977-.038-1.35-.874 0 0 .412-.514 1.424-.399 0 0-.937-.21-1.144-1.349 0 0 .676-.436 1.746.266 0 0-.19-.36-.638-.72-.45-.363-.995-1.37-.806-2.849zm3.93 11.456a2.645 2.645 0 01-.327-.566c.167 1.381.226 2.313.964 3.208 0 0 .445-.599.159-2.053a1.426 1.426 0 01-.397-.188s.168.59.061 1.184c0 0-.264-.194-.46-1.585zm-1.276-.144a4.352 4.352 0 01-.348-.52c-.06.803-.271 2.913.429 3.575 0 0 .48-.355.647-3.436-.1.172-.28.356-.366.457 0 0 .117.977-.23 1.667 0 0-.346-.267-.132-1.743zm-1.668 1.613c.586-.711.764-2.845.764-2.845.08-.055.162-.115.246-.182.03-.027.064-.055.095-.085 0 .077.003.158.01.238-.085 1.285-.185 2.608-.581 3.266-.388.646-1.103.981-1.103.981-.668-1.205.14-2.82.82-3.944.08-.032.165-.072.252-.116-.237.865-.69 1.894-.503 2.687zm-1.661-3.702a.957.957 0 00.072.395c-.561.556-.977 1.089-1.807 2.256-.832 1.167-2.148 1.214-2.148 1.214.127-.946.38-1.693 1.086-2.499.704-.805 1.606-1.541 2.268-2.028a1.24 1.24 0 00.737.084.983.983 0 00-.17.345c-.503.29-1.958 1.036-2.547 2.241 0 0 .92-.294 2.51-2.008zm-1.043-1.177l.054-.1c.022-.034.038-.063.06-.091-.541.212-2.47.948-3.092 1.274-.625.329-1.528 1.07-2.019 2.579 0 0 1.301.117 2.375-.78 1.074-.902 2.326-2.155 2.86-2.553a.854.854 0 01-.124-.14s-1.453 1.301-2.99 1.865c0 0 .329-.605.937-1.042.739-.531 1.293-.71 1.94-1.012zm-1.104-.892c.022-.052.043-.101.065-.147-.637.13-2.225.323-2.937.542-.71.222-1.994.747-2.756 2.22 0 0 1.119.348 3.23-.656 2.11-1.006 2.773-1.215 3.175-1.323a1.46 1.46 0 01-.665-.207c-.842.38-1.969.828-3.087.858 0 0 .55-.393 1.131-.642a14.86 14.86 0 011.844-.645zm.056-1.056c.206.097.364.146.635.174a1.623 1.623 0 00-.411.384c-.745.217-2.014.454-4.107.607-2.092.15-3.208-.237-3.208-.237.729-.451 1.891-.909 2.678-1.063.786-.154 2.851-.136 3.756-.261.01.01.12.1.298.21-.761.068-2.384.144-3.22.575 0 0 1.544.207 3.579-.39zm-.158-1.218c.106-.063.233-.126.389-.185-1.06-.323-2.514-.843-4.704-.986-1.604-.107-2.762-.014-3.362.143 0 0 1.462 1.041 3.132 1.408 1.673.37 3.03.137 4.022.146.064-.1.139-.211.255-.323-1.16.008-3.09-.296-3.78-.53 0 0 1.683-.354 4.048.327zm-.006-1.26c.005.03.13.635.823.968-1.489-.658-4.418-1.037-5.994-1.7-2.128-.895-2.518-2.012-2.518-2.012 1.843-.05 3.333.404 4.481.762 1.344.416 3.391 1.19 4.107 1.513a1.58 1.58 0 00-.81.257c-1-.389-1.466-.553-2.374-.81-.718-.203-1.247-.243-1.696-.286 0 0 .63.421 1.67.756 1.03.335 1.475.39 2.31.552zm-.111-1.643c.06.107.234.36.305.462-2.353-.399-4.94-2.198-5.739-3.314-.8-1.116-.574-2.78-.574-2.78.776.157 2.462 1.628 2.899 2.071.438.441 1.755 1.74 2.668 2.464l.285.837a98.423 98.423 0 00-2.288-1.787c-.445-.339-1.112-.821-1.775-1.049 0 0 .61.804 1.103 1.197.57.454 1.148.848 1.622 1.112.422.235.639.367 1.494.787z" fill="#fff"/><path fill-rule="evenodd" clip-rule="evenodd" d="M18.251 24.419c.072-.064.135-.126.185-.181.108.137.472.595.652 1.053.134.39.28.921.35 1.226.073.302.285.936.416 1.153 0 0-.572.072-.997-.43-.417-.49-.556-.986-.622-1.493a5.574 5.574 0 01.016-1.328zm-.902.075c.106.145.208.203.218.21l.079.04.079-.029a1.14 1.14 0 00.198-.079c.085.234.12.347.139.546.026.265.077.683-.02 1.024-.119.414-.366.669-.501.827 0 0-.376-.417-.483-.76a1.99 1.99 0 01-.013-1.21c.076-.233.196-.446.304-.569zm-1.292.04c.384-.051.674-.191.893-.353.048.136.124.32.07.58-.06.26-.237.548-.492.757-.39.311-.905.605-1.476.517 0 0-.132-.436 1.005-1.5zm-.434-.725c.048.386.23.629.242.648-.133.162-.614.997-1.618.859 0 0-.274-.57.396-1.024.452-.307.67-.37.98-.483zm.088-.716a2.146 2.146 0 01-1.041-.006l-.117-.027-.035-.114c-.517.425-1.13.497-1.341.884 0 0 .258.48.928.401a2.234 2.234 0 001.532-.854 2.51 2.51 0 01.074-.284zm-1.157-.598c.093-.144.16-.365.36-.59a3.475 3.475 0 00-1.363.019c-.617.116-1.248.264-1.564 1.216 0 0 .395.341 1.117.194.613-.128 1.144-.394 1.45-.84zm-.264-1.032a1.576 1.576 0 01-.401-.543l-.05-.12c-.537-.22-1.094-.333-1.643-.128-.546.208-.69.444-.827.652 0 0 .606.512 1.3.53.697.023 1.34-.18 1.62-.39zm.162-1.113a2.02 2.02 0 01.311-.092 1.923 1.923 0 01-.581-1.015c-.25.059-.833.059-1.09-.04-.258-.1-.763-.104-1.157.159 0 0 .13.7 1.022.94.842.223 1.152.165 1.495.048zm-.322-1.364l.117-.076c.017-.01.217-.135.557-.162-.287-.216-.973-.797-1.455-1.076-.531-.3-1.408-.697-1.855-.756 0 0 .419 1.111.905 1.561.509.466.862.639 1.731.509zm.905-.512c-.217-.28-.384-.669-.509-1.127-.1-.372-.332-1.296-.469-1.535-.136-.24-.63-1.077-1.595-1.338 0 0-.258 1.093.228 1.954.417.746 1.277 1.53 2.345 2.046zm5.355 5.075c.118.123.21.19.425.299 0 0 .309.594-.065 1.313-.374.718-.688 1.45-.838 1.858 0 0-.2-.03-.424-1.154-.15-.762-.34-.952-.54-1.214.217.111.392.144.407.147l.15.026.067-.135a1.541 1.541 0 00.162-.905.72.72 0 00.603-.258c.005-.01.011-.015.014-.023l.039.046z" fill="#fff"/><path fill-rule="evenodd" clip-rule="evenodd" d="M12.19 14.931c-.002.106-.006.22-.002.344l.02.268c-.572-.736-1.253-1.621-1.903-2.44-.446-.56-.824-.9-1.241-1.173.35 1.038.984 1.867 1.43 2.28.447.413 1.097 1.11 1.727 1.535l.06.21c.05.193.126.392.231.578.146.262.34.52.568.771a10.342 10.342 0 00-.605-.282l-.196-.082c-1.738-.933-3.458-2.864-4.157-4.207-.7-1.343-.407-2.903-.223-3.737.788.676 1.923 2.007 2.418 2.732.61.888 1.39 2.147 1.872 3.172l.002.031zm24.361 5.731a2.352 2.352 0 00-.387-.185c1.058-.323 2.514-.843 4.702-.986 1.605-.107 2.766-.014 3.364.143 0 0-1.461 1.041-3.133 1.408-1.672.37-3.03.137-4.021.146a1.727 1.727 0 00-.256-.323c1.16.008 3.093-.296 3.782-.53 0 0-1.684-.354-4.05.327zm.006-1.26c-.005.03-.13.635-.822.968 1.487-.658 4.42-1.037 5.993-1.7 2.13-.895 2.519-2.012 2.519-2.012-1.843-.05-3.333.404-4.482.762-1.342.416-3.391 1.19-4.108 1.513.27.01.563.09.813.257 1-.389 1.465-.553 2.374-.81.717-.203 1.246-.243 1.694-.286 0 0-.63.421-1.669.756-1.031.335-1.476.39-2.312.552zm.113-1.643c-.058.107-.236.36-.305.462 2.352-.399 4.94-2.198 5.738-3.314.802-1.116.575-2.78.575-2.78-.778.157-2.463 1.628-2.9 2.071-.436.441-1.754 1.74-2.668 2.464l-.285.837a91.779 91.779 0 012.29-1.787c.444-.339 1.11-.821 1.773-1.049 0 0-.61.804-1.104 1.197-.565.454-1.144.848-1.62 1.112-.423.235-.638.367-1.494.787zm-.571-2.828c.003.106.006.22 0 .344l-.02.268c.571-.736 1.255-1.621 1.905-2.44.446-.56.824-.9 1.242-1.173-.353 1.038-.984 1.867-1.433 2.28-.446.413-1.092 1.11-1.724 1.535l-.062.21c-.05.193-.124.392-.23.578a4.18 4.18 0 01-.569.771c.184-.092.393-.192.605-.282l.196-.082c1.738-.933 3.46-2.864 4.157-4.207.696-1.343.41-2.903.224-3.737-.79.676-1.924 2.007-2.42 2.732-.609.888-1.388 2.147-1.871 3.172v.031zm-21.69 10.611c-.716.723-2.225 2.349-2.084 4.111 0 0 1.403-.443 1.98-1.483.578-1.04.935-1.69 1.176-1.925a1.56 1.56 0 01-.463-.005l-.126-.02c-.356.656-1.061 1.728-1.696 2.102 0 0-.162-.87 1.704-2.63a1.48 1.48 0 01.116-.247 1.59 1.59 0 01-.583.095l-.024.002zm19.219-9.76c-.356.796-.941 1.613-2.533 2.715-.357.247-.75.76-.451 1.482.299.721.864 1.746.525 2.146-.337.4-1.538.607-2.516.21 0 0-.205.624-.561 1.024 0 0 .167.345.732.171 0 0-.207.513.074 1.064 0 0 .657-.113.937-.722 0 0 .263.474.791.645 0 0 .433-.226.337-1.102 0 0 .318.78 1.297.912 0 0 .563-.72-.171-1.69 0 0 .526.475 1.483.247 0 0 .15-.493-.715-1.177 0 0 .98-.038 1.355-.874 0 0-.414-.514-1.427-.399 0 0 .937-.21 1.144-1.349 0 0-.676-.436-1.745.266 0 0 .187-.36.637-.72.451-.363.997-1.37.807-2.849zM29.7 27.238a3.02 3.02 0 00.329-.566c-.169 1.381-.23 2.313-.968 3.208 0 0-.444-.599-.16-2.053a1.45 1.45 0 00.4-.188s-.169.59-.065 1.184c0 0 .27-.194.464-1.585zm1.276-.144a3.98 3.98 0 00.347-.52c.061.803.27 2.913-.43 3.575 0 0-.479-.355-.648-3.436.103.172.28.356.365.457 0 0-.114.977.232 1.667 0 0 .347-.267.134-1.743zm1.668 1.613c-.59-.711-.766-2.845-.766-2.845a3.137 3.137 0 01-.34-.267c0 .077-.003.158-.01.238.083 1.285.186 2.608.58 3.266.389.646 1.101.981 1.101.981.671-1.205-.138-2.82-.815-3.944a2.391 2.391 0 01-.252-.116c.236.865.688 1.894.502 2.687zm1.656-3.702a.904.904 0 01-.067.395c.558.556.975 1.089 1.805 2.256.832 1.167 2.149 1.214 2.149 1.214-.126-.946-.381-1.693-1.086-2.499-.704-.805-1.604-1.541-2.268-2.028a1.242 1.242 0 01-.738.084c.088.119.141.236.17.345.502.29 1.961 1.036 2.548 2.241 0 0-.922-.294-2.512-2.008zm1.047-1.177l-.055-.1a.714.714 0 00-.059-.091c.541.212 2.47.948 3.093 1.274.623.329 1.524 1.07 2.014 2.579 0 0-1.299.117-2.373-.78-1.073-.902-2.326-2.155-2.859-2.553.054-.05.094-.099.126-.14 0 0 1.452 1.301 2.986 1.865 0 0-.326-.605-.932-1.042-.741-.531-1.293-.71-1.94-1.012zm1.1-.892a1.495 1.495 0 00-.064-.147c.637.13 2.228.323 2.94.542.706.222 1.992.747 2.755 2.22 0 0-1.119.348-3.232-.656-2.112-1.006-2.77-1.215-3.173-1.323.319-.024.547-.133.666-.207.842.38 1.969.828 3.086.858 0 0-.553-.393-1.13-.642a15.06 15.06 0 00-1.848-.645zm-.05-1.056a1.744 1.744 0 01-.636.174c.147.097.287.219.413.384.744.217 2.01.454 4.104.607 2.093.15 3.208-.237 3.208-.237-.728-.451-1.89-.909-2.676-1.063-.788-.154-2.853-.136-3.759-.261-.01.01-.121.1-.297.21.762.068 2.384.144 3.22.575 0 0-1.544.207-3.577-.39z" fill="#fff"/><path fill-rule="evenodd" clip-rule="evenodd" d="M30.036 24.419c-.071-.064-.132-.126-.187-.181-.106.137-.469.595-.646 1.053-.137.39-.282.921-.352 1.226-.074.302-.288.936-.418 1.153 0 0 .574.072.998-.43.417-.49.558-.986.625-1.493a5.695 5.695 0 00-.02-1.328zm.902.075c-.106.145-.207.203-.217.21l-.077.04-.082-.029a1.33 1.33 0 01-.197-.079 2.047 2.047 0 00-.138.546c-.029.265-.078.683.018 1.024.12.414.365.669.502.827 0 0 .376-.417.484-.76a2.01 2.01 0 00.015-1.21 1.754 1.754 0 00-.308-.569zm1.294.04a1.902 1.902 0 01-.894-.353c-.047.136-.124.32-.067.58.055.26.234.548.494.757.383.311.901.605 1.473.517 0 0 .131-.436-1.006-1.5zm.431-.725a1.384 1.384 0 01-.243.648c.133.162.616.997 1.625.859 0 0 .269-.57-.397-1.024-.458-.307-.672-.37-.985-.483zm-.088-.716c.268.069.618.096 1.045-.006l.117-.027.033-.114c.518.425 1.131.497 1.342.884 0 0-.258.48-.927.401a2.236 2.236 0 01-1.534-.854 1.801 1.801 0 00-.076-.284zm1.162-.598c-.097-.144-.164-.365-.363-.59a3.477 3.477 0 011.363.019c.618.116 1.248.264 1.565 1.216 0 0-.398.341-1.12.194-.61-.128-1.142-.394-1.445-.84zm.261-1.032c.156-.137.299-.313.402-.543l.05-.12c.538-.22 1.096-.333 1.64-.128.55.208.692.444.833.652 0 0-.607.512-1.305.53-.696.023-1.34-.18-1.62-.39zm-.161-1.113a1.994 1.994 0 00-.314-.092c.238-.211.472-.534.585-1.015.249.059.833.059 1.09-.04.257-.1.763-.104 1.156.159 0 0-.128.7-1.023.94-.844.223-1.153.165-1.494.048zm.32-1.364l-.116-.076c-.017-.01-.217-.135-.56-.162.29-.216.972-.797 1.46-1.076.53-.3 1.405-.697 1.856-.756 0 0-.42 1.111-.91 1.561-.506.466-.86.639-1.73.509zm-.904-.512c.216-.28.384-.669.508-1.127.103-.372.334-1.296.472-1.535.138-.24.63-1.077 1.595-1.338 0 0 .257 1.093-.229 1.954-.42.746-1.276 1.53-2.346 2.046zm-5.35 5.075c-.125.123-.216.19-.43.299 0 0-.309.594.066 1.313.372.718.686 1.45.838 1.858 0 0 .201-.03.423-1.154.151-.762.342-.952.54-1.214a1.61 1.61 0 01-.406.147l-.149.026-.069-.135a1.515 1.515 0 01-.17-.714c0-.068.003-.132.01-.19-.348.008-.533-.17-.602-.259-.008-.01-.014-.015-.017-.023l-.034.046z" fill="#fff"/><path fill-rule="evenodd" clip-rule="evenodd" d="M33.88 25.542c.715.723 2.225 2.349 2.081 4.111 0 0-1.403-.443-1.978-1.483-.579-1.04-.933-1.69-1.176-1.925.153.02.309.02.462-.005l.129-.02c.354.656 1.06 1.728 1.694 2.102 0 0 .162-.87-1.703-2.63a1.642 1.642 0 00-.117-.247c.17.064.365.099.582.095l.025.002zM23.049 11.481c0-.13.491-.237 1.095-.237.606 0 1.096.108 1.096.237 0 .13-.49.236-1.096.236-.604 0-1.095-.107-1.095-.236zm1.309.519a.215.215 0 11-.431 0c0-.12.098-.216.217-.216.12 0 .214.097.214.217zm-1.388-.75c-.363-.877-.608-1.527-.599-1.743.007-.131.161-.229.308-.274.144-.046.272-.055.37.02.19.147.364 1.333.43 1.826a1.53 1.53 0 00-.51.171zm.666-.19c.092-.011.187-.016.283-.02a12.546 12.546 0 00-.313-1.564c-.096-.31-.217-.533-.418-.589 0 0 .157.432.243.877.084.446.15.872.205 1.296zm-1.153 1.574c.402-.096.813-.53.813-.53-.65.094-.813.53-.813.53zm.601-.04c-.56.33-1.188.28-1.188.28.122-.225.237-.433.587-.686.35-.254.922-.317 1.146-.286-.05.17-.278.534-.545.692zm-2.091.932v-.046c-.551.071-1.2.043-1.2.043.033.207.119.364.263.46.035-.452.937-.457.937-.457zm-1.828-.597s.696.261 1.394.228c.694-.036 1.98-.05 2.392-.255 0 0-.066.265-.398.417 0 0 .175 0 .345.151 0 0-.1.22-.396.335 0 0 .53.557 1.1.517 0 0-.262.33-.844.203s-.769-.457-.867-.583c0 0 .076.315.04.442 0 0-.256-.016-.455-.27 0 0 .145.254.175.468 0 0-.16.018-.448-.153 0 0 .06.158.071.339 0 0-.672-.217-.998-.526 0 0-.004.213.012.334 0 0-1.043-.107-1.123-1.647zm-.161.107c.026.334.11.662.226.896 0 0-.41-.312-.51-.578-.103-.262-.127-.445.284-.318zm-.824 1.266a.173.173 0 100-.345.17.17 0 00-.167.173.17.17 0 00.167.172zm1.006-.202c.274.126.519.427.519.427-.416.096-.6.216-.6.216-.798-.568-1.455.003-1.455.003-.431-.245-.514-.85-.298-1.168.215-.32.701-.264.932-.208.146.467.654.617.902.73zm.61.53s.29.393.502.565c0 0-1.072-.01-1.343.929 0 0-.371-.575-.1-.95.293-.404.56-.454.94-.543z" fill="#fff"/><path fill-rule="evenodd" clip-rule="evenodd" d="M20.973 14.864s.347.104.462.134c0 0 .003-.203-.003-.3.104.025.234.059.345.07 0 0 .345.78.615 1.096 0 0 .016.173-.134.436 0 0-.197-.462-.548-.832-.198-.208-.325-.314-.737-.604zm-.912-.167c.113.031.667.207.932.402.337.242.568.521.53 1.002 0 0-.27-.381-.569-.552a3.392 3.392 0 01-.893-.851zm.009-3.53c.101 0 .298.049.298.214 0 .168-.254.57-.324.749h-.007c-.067-.178-.326-.58-.326-.749 0-.165.2-.214.302-.214h.056zm-.226 1.297c-.047-.234-.14-.841-.28-.975-.136-.13-.337-.141-.435-.136a.188.188 0 00-.165.246c.04.14.484.813.542.898.103-.019.084-.012.338-.033zm.394 0c.05-.234.14-.841.282-.975.134-.13.337-.141.435-.136a.19.19 0 01.167.246c-.044.14-.487.813-.546.898-.102-.019-.083-.012-.338-.033zm.287-2.114h-.347v-.386h-.279v.387h-.35v.244h.35v.453h.279v-.453h.347v-.244zm-4.195 2.5c0-.077.003-.152.014-.225a1.72 1.72 0 00.008-.484c-.25.098-.418.158-.761.719 0 0 .547-.341.738-.01zm.477.886c.007-.139.098-.579.212-.887.14-.382.058-.933-.11-1.268-.163-.323-.251-.627-.224-.962 0 0-.322.11-.51.226-.029.389.195.778.301.998.127.26.1.602.073.81-.049.353.023.73.258 1.083zm.036-2.968a.435.435 0 01.01-.216s.512-.503.94-.587a.576.576 0 01.518.132s-.15-.018-.379.17c-.23.189-.515.414-.727.471-.214.057-.259.04-.362.03zm1.512-.634c.19.194.353.4.35.578-.003.184-.216.648-.326.824-.111.175-.274.407-.256.687.01.14.107.284.221.403 0 0-.625-.15-.703-.54-.066-.35.082-.593.183-.787.092-.182.38-.605.454-.782.066-.16.101-.293.077-.383zm3.649 4.397c.123.448.336.868.546 1.197.188.302.308.79.29.955 0 0 .282-.63.14-1.074-.115-.346-.417-.862-.976-1.078zm.702.147s.43.008.629.141c.257.172.502.548.597.998 0 0-.433-.076-.646-.292-.216-.216-.48-.54-.58-.847zm-2.216.783a2.918 2.918 0 00-.41.09s.364.108.547.261c.156.13.29.33.352.667.09.472.362.98.445 1.133l.033-.007c-.05-.325.149-.998.203-1.096 0 0-.291-.183-.424-.373-.098-.141-.27-.375-.747-.675zm1.898 1.013c.105.248.39.687.257 1.144-.132.458-.43.655-.611 1.044 0 0-.143-.702-.113-1.242.033-.542.228-.75.467-.946zm.822.018s.427.836.504 1.163c.074.325.005.54-.141.739-.142.195-.388.408-.616.82 0 0-.262-.351-.293-.535-.03-.184.018-.623.076-.805.055-.187.28-.779.47-1.382zm.218 2.668c-.092.102-.59.707-.657.883-.067.176-.182.51-.029.743.156.232.512.601.819.758 0 0-.335-.531-.3-.966.02-.28.234-.527.275-.698.04-.168.015-.455-.108-.72zm-.975-.334c.077.107.21.368.229.621.018.25-.023.45-.158.817-.169.463-.434.977-.557 1.21 0 0-.233-.339-.362-.64 0 0 .365-.508.522-.866.18-.421.254-.81.326-1.142zm-.168-.196s-.158 1.19-.85 2.073c-.468.597-.849.806-1.101.806-.38 0-.762-.32-.889-.688-.129-.365-.087-.934.16-1.136 0 0 .226.714.713.74.551.031 1.259-.593 1.967-1.795z" fill="#fff"/><path fill-rule="evenodd" clip-rule="evenodd" d="M21.717 18.133c.058.213.076.539 0 .847-.057.234-.197.538-.468.71-.234.148-.788.183-.997-.344 0 0 1.008.077 1.465-1.213zm1.648 4.797c.138.357.63.81.628 1.089-.008.739-.33 1.192-.404 1.435 0 0-.585-.47-.69-1.008-.053-.276.009-1.107.466-1.517zm-.655.523c.067-.193.284-.716.533-.898 0 0 .318-.948-.706-1.533 0 0-.422.565-.533 1.097-.112.535.445.854.706 1.334zm-1.282-2.398c-.165.204-.398.48-.579.568 0 0-.06.424-.028.706.055.418.318.844.433 1.157 0 0 .448-.592.5-.94.05-.349.044-.635.061-.802 0 0-.25-.41-.387-.689zm-1.183 2.035c-.127-.197-.536-.914-.54-1.436 0 0 .504.272.927.071 0 0 .054.68-.025.91-.07.186-.155.297-.362.455zm.117.144c.082-.073.284-.26.368-.359 0 0 .335.621.392.803 0 0-.168.045-.353-.091a2.755 2.755 0 01-.407-.353zm1.553-.364c-.04.157-.583.918-.676 1.012 0 0 .04.276.242.673.2.395.48.674.63.814 0 0 .336-.59.435-.848.11-.298.098-.59.051-.7-.114-.257-.507-.629-.682-.951zm.815 1.994c.12.244.481.646.538.964.045.25.005.454-.062.629-.068.168-.284.505-.429.76 0 0-.495-.472-.604-.81a1.202 1.202 0 01.067-.839c.118-.226.377-.47.49-.704zm-1.4-.069c.127.284.433.566.504.814.081.293.108.478-.032.82-.125.299-.275.475-.325.657 0 0-.402-.527-.47-.746-.066-.219-.088-.58-.005-.807.08-.232.228-.528.328-.738zm1.98 2.005s-.693.846-.677 1.294c.02.558.387.93.438 1.274 0 0 .362-.415.502-.694.155-.313.272-.58.234-.935-.044-.356-.135-.583-.497-.938zm-1.276-.083c.11.162.417.715.33 1.042-.086.331-.427.795-.542.992 0 0-.273-.568-.336-.83-.06-.257-.004-.683.548-1.204zm2.117-16.151c.047-.318.412-1 .412-1.298a.421.421 0 00-.418-.424.42.42 0 00-.42.424c0 .297.367.98.412 1.298h.014zm1.167.684c.365-.877.607-1.527.598-1.743-.006-.131-.16-.229-.304-.274-.147-.046-.278-.055-.373.02-.189.147-.367 1.333-.431 1.826a1.5 1.5 0 01.51.171zm-.666-.19a3.402 3.402 0 00-.28-.02c.057-.47.217-1.256.312-1.564.093-.31.214-.533.417-.589 0 0-.157.432-.243.877-.084.446-.15.872-.206 1.296zm.342 1.043s.409.435.813.53c0 0-.165-.435-.813-.53zm-.336-.2c.226-.032.798.031 1.15.285.35.253.464.461.584.686 0 0-.628.05-1.188-.28-.265-.158-.494-.522-.546-.692zm3.572 2.079c.147-.096.23-.252.266-.46 0 0-.65.03-1.204-.042v.046s.904.005.939.456zm-.23.594c.017-.121.01-.335.01-.335-.326.31-.996.527-.996.527.01-.181.067-.339.067-.339-.284.172-.444.153-.444.153.03-.214.176-.467.176-.467-.201.253-.457.27-.457.27-.035-.128.04-.443.04-.443-.098.126-.283.456-.866.582-.584.128-.844-.202-.844-.202.569.04 1.1-.517 1.1-.517-.296-.116-.396-.335-.396-.335.172-.151.345-.151.345-.151-.332-.152-.401-.417-.401-.417.417.205 1.699.219 2.396.255.697.033 1.39-.228 1.39-.228-.078 1.54-1.12 1.647-1.12 1.647zm1.285-1.54a2.604 2.604 0 01-.225.896s.41-.312.509-.578c.1-.262.126-.445-.284-.318zm.992 1.094a.173.173 0 00-.172-.173.172.172 0 000 .345.172.172 0 00.172-.172zm-.273-.76c.231-.056.717-.113.932.208.218.319.133.923-.3 1.168 0 0-.657-.57-1.453-.003 0 0-.186-.12-.602-.216 0 0 .246-.3.522-.427.245-.114.755-.263.901-.73zm-1.512 1.26s-.288.393-.5.565c0 0 1.071-.01 1.342.929 0 0 .371-.575.1-.95-.292-.404-.56-.454-.942-.543z" fill="#fff"/><path fill-rule="evenodd" clip-rule="evenodd" d="M27.315 14.864s-.347.104-.462.134c0 0-.006-.203.006-.3-.105.025-.234.059-.347.07 0 0-.346.78-.615 1.096 0 0-.016.173.134.436 0 0 .196-.462.546-.832.2-.208.326-.314.738-.604zm.909-.167c-.108.031-.662.207-.932.402-.333.242-.564.521-.529 1.002 0 0 .272-.381.57-.552a3.34 3.34 0 00.892-.851zm-.006-3.53c-.101 0-.3.049-.3.214 0 .168.257.57.326.749h.006c.068-.178.326-.58.326-.749 0-.165-.198-.214-.301-.214h-.057zm.227 1.297c.047-.234.137-.841.281-.975.135-.13.336-.141.436-.136.102.007.207.11.162.246-.04.14-.484.813-.544.898-.102-.019-.081-.012-.335-.033zm-.395 0c-.049-.234-.14-.841-.282-.975-.136-.13-.337-.141-.436-.136a.188.188 0 00-.163.246c.04.14.482.813.543.898.103-.019.082-.012.339-.033zm-.283-2.114h.345v-.386h.278v.387h.347v.244h-.347v.453h-.279v-.453h-.344v-.244zm-4.11-2.291h.345V7.67h.282v.388h.347V8.3h-.347v.457h-.282V8.3h-.345v-.24zm8.305 4.791a2.908 2.908 0 00-.017-.225 1.794 1.794 0 01-.01-.484c.25.098.418.158.763.719 0 0-.548-.341-.736-.01z" fill="#fff"/><path fill-rule="evenodd" clip-rule="evenodd" d="M31.481 13.736a4.275 4.275 0 00-.21-.887c-.14-.382-.06-.933.108-1.268.162-.323.254-.627.223-.962 0 0 .324.11.51.226.031.389-.192.778-.298.998-.128.26-.103.602-.074.81.049.353-.026.73-.259 1.083zm-.035-2.968a.483.483 0 00-.014-.216s-.508-.503-.937-.587a.58.58 0 00-.52.132s.152-.018.38.17c.229.189.512.414.728.471.214.057.261.04.363.03zm-1.512-.634c-.191.194-.352.4-.349.578.002.184.214.648.325.824.112.175.274.407.253.687-.009.14-.105.284-.217.403 0 0 .624-.15.699-.54.069-.35-.077-.593-.179-.787-.093-.182-.382-.605-.454-.782-.066-.16-.102-.293-.078-.383zm-3.649 4.397a4.665 4.665 0 01-.547 1.197c-.19.302-.309.79-.287.955 0 0-.284-.63-.14-1.074.11-.346.413-.862.974-1.078zm-.705.147s-.427.008-.627.141c-.258.172-.505.548-.598.998 0 0 .433-.076.648-.292.215-.216.477-.54.577-.847zm2.22.783c.082.007.3.058.408.09 0 0-.365.108-.546.261-.155.13-.293.33-.353.667-.088.472-.363.98-.446 1.133l-.03-.007c.05-.325-.15-.998-.202-1.096 0 0 .29-.183.42-.373.097-.141.272-.375.748-.675zm-1.9 1.013c-.104.248-.388.687-.258 1.144.134.458.431.655.611 1.044 0 0 .145-.702.113-1.242-.032-.542-.226-.75-.466-.946zm-1.751 1.282c.02-.269.634-.915.603-1.264-.032-.35-.491-.597-.605-.648h-.006c-.112.051-.573.297-.606.648-.032.35.583.995.602 1.264h.012zm.929-1.264s-.426.836-.503 1.163c-.076.325-.005.54.14.739.143.195.387.408.617.82 0 0 .261-.351.294-.535.032-.184-.02-.623-.077-.805-.056-.187-.283-.779-.471-1.382zm-.928 3.232c.193-.17.366-.422.422-.572.053-.149.067-.367-.062-.535-.155-.199-.349-.424-.36-.605h-.011c-.014.181-.206.406-.361.605-.13.168-.117.386-.06.535.053.15.228.402.423.572h.008zm.71-.564c.094.102.591.707.658.883.068.176.182.51.028.743-.156.232-.51.601-.82.758 0 0 .336-.531.302-.966-.023-.28-.236-.527-.276-.698-.04-.168-.012-.455.108-.72zm.974-.334a1.409 1.409 0 00-.23.621c-.015.25.025.45.16.817.171.463.434.977.555 1.21 0 0 .234-.339.364-.64 0 0-.364-.508-.521-.866-.18-.421-.254-.81-.328-1.142zm.171-.196s.157 1.19.849 2.073c.468.597.849.806 1.1.806.38 0 .763-.32.891-.688.126-.365.087-.934-.159-1.136 0 0-.228.714-.715.74-.549.031-1.258-.593-1.966-1.795z" fill="#fff"/><path fill-rule="evenodd" clip-rule="evenodd" d="M26.57 18.133a1.815 1.815 0 000 .847c.059.234.2.538.47.71.235.148.784.183.996-.344 0 0-1.007.077-1.466-1.213zm-2.426 3.532c.143-.07.263-.12.429-.373.125-.199.247-.566.18-.828-.086-.323-.258-.452-.363-.654-.084.08-.137.143-.24.203h-.006c-.105-.06-.159-.123-.245-.203-.107.202-.275.33-.363.654-.067.262.053.63.18.828.164.252.286.303.428.373zm0 2.007c.069-.317.722-.925.66-1.257-.089-.496-.405-.392-.655-.6h-.005c-.252.208-.571.104-.662.6-.058.332.591.94.659 1.257h.003zm.779-.742c-.137.357-.631.81-.627 1.089.009.739.327 1.192.404 1.435 0 0 .585-.47.688-1.008.055-.276-.008-1.107-.465-1.517zm.654.523c-.067-.193-.282-.716-.532-.898 0 0-.319-.948.706-1.533 0 0 .422.565.535 1.097.112.535-.447.854-.709 1.334zm1.285-2.398c.163.204.394.48.577.568 0 0 .06.424.027.706-.055.418-.319.844-.431 1.157 0 0-.45-.592-.503-.94-.052-.349-.041-.635-.057-.802 0 0 .247-.41.387-.689zm1.18 2.035c.127-.197.54-.914.544-1.436 0 0-.506.272-.93.071 0 0-.054.68.029.91.065.186.152.297.357.455zm-.116.144a4.411 4.411 0 01-.364-.359s-.338.621-.393.803c0 0 .165.045.35-.091.184-.135.225-.172.407-.353zm-1.554-.364c.041.157.583.918.676 1.012 0 0-.043.276-.244.673a2.932 2.932 0 01-.628.814s-.334-.59-.434-.848c-.113-.298-.1-.59-.05-.7.112-.257.506-.629.68-.951zm-2.224 4.509c.052-.209.366-.457.494-.82.078-.214.075-.465-.008-.636-.1-.2-.45-.69-.49-.83-.044.14-.39.63-.491.83-.085.171-.087.422-.01.636.13.363.444.611.495.82h.01zm1.408-2.515c-.118.244-.479.646-.536.964-.045.25-.004.454.06.629.068.168.288.505.43.76 0 0 .495-.472.604-.81a1.191 1.191 0 00-.068-.839c-.119-.226-.375-.47-.49-.704zm1.404-.069c-.128.284-.436.566-.505.814-.083.293-.109.478.03.82.127.299.274.475.326.657 0 0 .402-.527.467-.746.071-.219.09-.58.01-.807-.085-.232-.23-.528-.327-.738zm-2.816 6.625c.026-.258.552-1.055.577-1.9.012-.424-.359-1.085-.572-1.337h-.012c-.21.252-.582.913-.57 1.337.026.845.55 1.642.577 1.9zm.836-4.62s.692.846.676 1.294c-.02.558-.39.93-.438 1.274 0 0-.364-.415-.502-.694-.155-.313-.274-.58-.23-.935.039-.356.13-.583.494-.938zm1.274-.083c-.111.162-.417.715-.33 1.042.09.331.428.795.542.992 0 0 .272-.568.335-.83.062-.257.003-.683-.547-1.204z" fill="#fff"/><path fill-rule="evenodd" clip-rule="evenodd" d="M24.616 32.775c.042-.656.412-1.05.476-1.391.073-.376.048-.736-.24-1.17-.236.809-.49 1.4-.692 1.805-.007.01-.011.022-.016.034-.005-.012-.008-.025-.016-.034-.2-.404-.456-.996-.69-1.805-.289.434-.314.794-.242 1.17.066.34.434.735.476 1.391.04.66-.692.909-.692.909.246.091.528.132.975-.297a.928.928 0 00.19-.253c.047.09.108.176.19.253.444.429.727.388.974.297 0 0-.733-.25-.693-.909zm-2.302-4.371c.075.246.303.7.333.84.055.26-.02.576-.49.91 0 0-.303-.216-.424-.497-.112-.266-.047-.454.07-.59.117-.137.394-.457.51-.663zm.986.973c0 .132-.096.876-.304 1.247-.294.519-.726.903-1.104.903-.349 0-.424-.212-.596-.296 0 0 .088-.451.481-.568.484-.148 1.224-.734 1.524-1.286z" fill="#fff"/><path fill-rule="evenodd" clip-rule="evenodd" d="M22.038 30.325c-.08-.063-.151-.105-.247-.22 0 0-.373.14-.68.348-.307.21-.608.566-.77.75 0 0 .46.121.751-.014 0 0 .105-.444.433-.643.073-.043.302-.112.514-.22zm-.378-.38c-.074-.112-.22-.318-.188-.643 0 0-.647.417-.837.571-.196.162-.6.583-.69.722 0 0 .49-.11.865-.237.411-.138.695-.323.85-.413zm-1.097.705c-.346.129-1.131.255-1.457.354-.328.098-.566.269-.879.613 0 0 .481.137.738.218 0 0 .409-.28.855-.454.293-.114.434-.422.743-.73zm-.729 2.34c.075-.086.17-.182.097-.378-.05-.146-.334-.302-.503-.385-.28-.136-1.06-.348-1.316-.423 0 0-.127.15-.192.308-.03.06.009.124.12.144.216.038.737-.06.866.023.135.09.085.21.085.333 0 0 .24-.15.389-.115.21.044.335.145.454.492zm-.694-1.098c.057.02.361.112.657.302 0 0 .13-.051.197-.173.062-.117.327-.515.574-.569 0 0-.21-.02-.33-.058 0 0-.252.065-.43.14-.18.074-.403.186-.667.358zm2.01-.503c-.045.022-.126.062-.309.07 0 0-.683.479-.764.96-.067.408.146.605.248.655.103.054.583.253.893-.397 0 0-.53.176-.674-.08-.143-.26.091-.635.235-.742.188-.145.529-.24.733-.204 0 0-.165-.16-.361-.262z" fill="#fff"/><path fill-rule="evenodd" clip-rule="evenodd" d="M16.666 36.887c.083-.353.176-.723.335-1.063.31-.663 1.068-2.427 2.65-2.74.15-.028-.17-.402-.31-.381-.144.015-.426.202-.55.286 0 0 0-.377-.005-.445-.004-.07-.063-.092-.124-.09-.062 0-.443-.002-.566.138-.36.423-.97 1.558-1.314 2.404-.345.845-.58 1.106-.944.975-.364-.13-.582-.552-1.215-.424-.22.046-.466.195-.656.415.053.103.12.229.418.229.296 0 .86.125 1.177.35.318.223.65.296 1.104.346zm6.317-5.471c.036.274.167.53.311.795 0 0-.483 2.248-2.222 2.423 0 0 .034-.466.55-.822.515-.354 1.286-.906 1.23-1.741 0 0-.137.028-.385.342-.247.313-.79 1.218-1.632 1.224 0 0 .126-.423.498-.668.373-.243.846-.556 1.06-.934.215-.375.44-.55.59-.619zm-.822 8.191l1.06 1.502.804-1.446-.285-.515c-.21.38-.434.79-.562 1.014-.1-.138-.367-.517-.718-1.014l-.299.46z" fill="#fff"/><path fill-rule="evenodd" clip-rule="evenodd" d="M21.89 38.336c-1.034-1.463-2.31-3.274-2.44-3.458l.401-.292-1.262-.489.022 1.394.427-.312 2.552 3.618.3-.461zm-8.716-8.22c.312-.344.84-.046 1.373.45.536.498.87 1.006.561 1.35-.29.318-.84.046-1.378-.45-.534-.497-.87-1.007-.556-1.35z" fill="#fff"/><path fill-rule="evenodd" clip-rule="evenodd" d="M14.036 36.228a.572.572 0 01-.05-.042c-.285-.251-.446-.64-.446-1.062 0-.813.652-1.476 1.458-1.476.804 0 1.455.663 1.455 1.476 0 .11-.021.29-.021.29.066-.126.305-.69.354-.794a1.864 1.864 0 00-1.788-1.373c-.734 0-1.369.43-1.67 1.056.113-.745.48-1.413.738-1.66.31-.296.838-.391.838-.391-.346.057-.803-.159-1.312-.635-.485-.447-.732-.84-.748-1.168.03.463.016.723-.115 1.1-.175.512-.655 1.46-.483 2.53.093.588.514 1.462 1.22 2.176.148.16.204.398.222.52 0 0 1.037 0 1.283.024 0 0 .248-.024.244-.178-.003-.156-.14-.196-.264-.196-.123 0-.639.013-.915-.197zm5.741.358c-.669.242-1.335.374-1.966.472a5.957 5.957 0 01-1.2.066.369.369 0 01-.03.212s.077.092.077.194c.39.014.798-.008 1.213-.074.692-.107 1.417-.247 2.149-.528l-.243-.342zm1.093-.052c.887-.488 1.75-1.245 2.53-2.45l.14-.237c-.213.096-.485.027-.485.027a.971.971 0 00-.066.107c-.727 1.086-1.533 1.77-2.354 2.216l.235.337zm-5.84.385c-.121-.02-.51-.009-.743.025-.257.042-.547.094-.578.237-.028.135.064.279.193.484.08.126.27.053.376.014.104-.039.704-.364.799-.47.097-.108.137-.26-.047-.29zm.61.4a.446.446 0 00-.382-.04c-.162.06-.753.412-.79.58-.042.164.04.245.132.283.09.036.2.072.283.08a.459.459 0 00.368-.168c.075-.095.352-.432.39-.51.04-.074.061-.184 0-.225zm.073.37a7.01 7.01 0 00-.353.438c-.027.048.015.124.09.115.073-.008.48-.05.715-.21.232-.162.388-.474.227-.586-.16-.113-.41-.06-.68.243zm.132-.896c-.078-.018-.386-.096-.451.006-.085.128-.025.265.214.382.237.114.686.206.777.083.086-.128-.036-.337-.54-.471zm10.129-8.389c-.077.246-.304.7-.335.84-.053.26.02.576.49.91 0 0 .303-.216.424-.497.114-.266.049-.454-.069-.59-.118-.137-.392-.457-.51-.663zm-.99.973c0 .132.096.876.308 1.247.294.519.724.903 1.102.903.351 0 .427-.212.597-.296 0 0-.088-.451-.483-.568-.48-.148-1.222-.734-1.524-1.286z" fill="#fff"/><path fill-rule="evenodd" clip-rule="evenodd" d="M26.248 30.325c.082-.063.149-.105.246-.22 0 0 .375.14.682.348.305.21.604.566.77.75 0 0-.46.121-.753-.014 0 0-.106-.444-.434-.643-.07-.043-.299-.112-.511-.22zm.381-.38c.072-.112.218-.318.185-.643 0 0 .646.417.84.571.195.162.599.583.69.722 0 0-.491-.11-.867-.237-.41-.138-.695-.323-.848-.413zm1.095.705c.348.129 1.127.255 1.457.354.328.098.567.269.88.613 0 0-.484.137-.738.218 0 0-.409-.28-.858-.454-.29-.114-.433-.422-.741-.73zm.728 2.34c-.075-.086-.17-.182-.1-.378.053-.146.338-.302.509-.385.281-.136 1.06-.348 1.313-.423 0 0 .126.15.194.308.029.06-.012.124-.119.144-.219.038-.74-.06-.868.023-.136.09-.088.21-.088.333 0 0-.236-.15-.39-.115-.205.044-.334.145-.451.492zm.693-1.098c-.057.02-.36.112-.656.302 0 0-.131-.051-.196-.173-.062-.117-.33-.515-.574-.569 0 0 .208-.02.326-.058 0 0 .254.065.436.14.18.074.403.186.664.358zm-2.011-.503c.048.022.128.062.309.07 0 0 .686.479.765.96.072.408-.143.605-.247.655-.104.054-.581.253-.891-.397 0 0 .528.176.673-.08.144-.26-.09-.635-.233-.742-.19-.145-.53-.24-.737-.204 0 0 .165-.16.361-.262z" fill="#fff"/><path fill-rule="evenodd" clip-rule="evenodd" d="M31.62 36.887c-.082-.353-.173-.723-.334-1.063-.308-.663-1.067-2.427-2.652-2.74-.148-.028.17-.402.316-.381.141.015.423.202.549.286 0 0 0-.377.003-.445.004-.07.062-.092.122-.09.062 0 .444-.002.565.138.362.423.97 1.558 1.316 2.404.346.845.581 1.106.943.975.365-.13.586-.552 1.217-.424.221.046.464.195.658.415-.055.103-.124.229-.418.229-.3 0-.865.125-1.18.35-.317.223-.648.296-1.104.346zm-6.319-5.471c-.032.274-.164.53-.307.795 0 0 .482 2.248 2.225 2.423 0 0-.037-.466-.552-.822-.518-.354-1.288-.906-1.233-1.741 0 0 .138.028.384.342.251.313.794 1.218 1.633 1.224 0 0-.123-.423-.496-.668-.372-.243-.847-.556-1.061-.934-.213-.375-.438-.55-.593-.619zm-1.154 2.181c.103.298.76 1.24 1.048 1.508.29.268.993.98 1.368 1.335 0 0-1.07-.268-1.672-.82 0 0-.428.251-.74.251h-.015c-.313 0-.742-.251-.742-.251-.6.552-1.668.82-1.668.82.373-.355 1.076-1.067 1.364-1.335.29-.268.95-1.21 1.051-1.508h.006z" fill="#fff"/><path fill-rule="evenodd" clip-rule="evenodd" d="M24.15 36.093c.236 0 .46-.095.587-.15-.127.269-.365.687-.593.86h-.003c-.228-.173-.466-.591-.59-.86.124.055.348.15.585.15h.013z" fill="#fff"/><path fill-rule="evenodd" clip-rule="evenodd" d="M25.066 41.108l4.182-5.93.426.312.026-1.393-1.268.49.402.291-3.726 5.284-1.894-3.473-.234.362-1.686 2.577-.422-.285-.006 1.37 1.28-.512-.43-.288c.233-.356 1.149-1.752 1.454-2.222l1.896 3.417z" fill="#fff"/><path fill-rule="evenodd" clip-rule="evenodd" d="M25.828 38.78c-.282-.43-.566-.866-.711-1.089-.106.2-.32.591-.56 1.023l-.3-.54.814-1.485.236.362.837 1.28-.316.449zm.864.385l.301.463.42-.285.009 1.37-1.281-.513.427-.287c-.044-.068-.109-.174-.194-.3l.318-.448zm8.421-9.049c-.313-.344-.84-.046-1.377.45-.533.498-.87 1.006-.558 1.35.289.318.844.046 1.378-.45.533-.497.87-1.007.557-1.35z" fill="#fff"/><path fill-rule="evenodd" clip-rule="evenodd" d="M34.252 36.228l.049-.042c.283-.251.448-.64.448-1.062a1.47 1.47 0 00-1.459-1.476c-.804 0-1.456.663-1.456 1.476 0 .11.022.29.022.29-.066-.126-.308-.69-.355-.794a1.86 1.86 0 011.79-1.373c.732 0 1.368.43 1.668 1.056-.115-.745-.477-1.413-.738-1.66-.31-.296-.838-.391-.838-.391.345.057.802-.159 1.312-.635.485-.447.735-.84.748-1.168-.03.463-.017.723.112 1.1.177.512.659 1.46.488 2.53-.094.588-.516 1.462-1.218 2.176-.152.16-.208.398-.225.52 0 0-1.039 0-1.286.024 0 0-.245-.024-.24-.178.004-.156.139-.196.263-.196.121 0 .64.013.915-.197zm-6.838.304c-.884-.49-1.748-1.242-2.529-2.449l-.14-.236c.214.096.488.027.488.027a.996.996 0 01.064.108c.727 1.083 1.532 1.768 2.354 2.215l-.237.335zm1.095.052c.668.244 1.334.376 1.965.474a5.94 5.94 0 001.2.066.37.37 0 00.032.212s-.076.093-.076.194a6.329 6.329 0 01-1.216-.074c-.687-.107-1.417-.247-2.145-.529l.24-.343zm4.747.335a3.64 3.64 0 01.745.025c.255.042.546.094.577.237.028.135-.064.279-.192.484-.083.126-.273.053-.375.014-.106-.039-.706-.364-.804-.47-.093-.108-.134-.26.049-.29zm-.613.4a.455.455 0 01.386-.04c.161.06.75.412.792.58.038.164-.043.245-.134.283-.09.036-.202.072-.284.08a.457.457 0 01-.366-.168 8.675 8.675 0 01-.394-.51c-.037-.074-.057-.184 0-.225zm-.068.37c.084.098.324.39.351.438.03.048-.015.124-.089.115-.075-.008-.48-.05-.714-.21-.233-.162-.388-.474-.226-.586.156-.113.407-.06.678.243zm-.132-.896c.077-.018.384-.096.45.006.082.128.024.265-.215.382-.235.114-.685.206-.775.083-.088-.128.036-.337.54-.471z" fill="#fff"/><path fill-rule="evenodd" clip-rule="evenodd" d="M51.393 48.847H99.68V0H51.393v48.847z" fill="#CC003D"/><path fill-rule="evenodd" clip-rule="evenodd" d="M90.29 15.494c.004-.216.044-1.732.048-1.937h.364c1.411 0 1.648.252 1.78 1.937H90.29zm4.014-.842c-.221-1.885-1.097-2.867-3.164-2.867h-2.63l-.358 10.653h1.916s.177-4.94.187-5.174l2.421.002c.022.215.385 5.172.385 5.172h1.977s-.68-7.318-.735-7.786zM67.043 30.125c.004-.216.044-1.732.048-1.937l.343-.022c1.41 0 1.669.274 1.8 1.96h-2.19zm4.014-.842c-.22-1.885-1.097-2.867-3.164-2.867h-2.63l-.357 10.653h1.916s.177-4.94.187-5.175l2.421.003c.022.215.384 5.172.384 5.172h1.978s-.68-7.318-.735-7.786zM56.68 11.785v10.65h1.937v-8.879h2.4v8.88h1.94v-10.65H56.68zm20.485 3.709h-1.054c-.436 0-.76-.098-.965-.297-.146-.138-.217-.325-.217-.57v-2.842h-1.94v3.041c0 .701.274 1.294.815 1.765.533.466 1.186.701 1.944.701h1.417v5.144h1.938v-10.65h-1.938v3.708zm4.084-3.709v1.771h1.61v8.88h1.959v-8.88h1.609v-1.77h-5.179zm-2.843 14.631v3.404h-2.658v-3.404h-1.934V37.07h1.934v-5.48h2.658v5.48h1.933V26.416h-1.933zM59.28 35.422c-.189 0-.662-.044-.662-.044v-3.75s.152-.036.318-.036c.983 0 2.144-.058 2.144 1.913 0 1.807-1.276 1.917-1.8 1.917zm.234-5.52c-.334 0-.63.008-.896.02v-1.735h3.475v-1.77h-5.411v10.65h2.939c2.93 0 3.384-2.635 3.384-3.61 0-1.154-.451-3.555-3.491-3.555zm7.195-12.772v-.001c.016-2.883.72-3.832 1.463-3.846.743.014 1.447.963 1.463 3.846-.016 2.816-.72 3.778-1.463 3.793-.743-.015-1.447-.977-1.463-3.792zm4.855-.395c-.033-1.524-.292-2.616-.693-3.391-.63-1.325-1.637-1.82-2.675-1.833l-.007-.001h-.034l-.007.001c-1.038.013-2.044.508-2.675 1.833-.401.775-.66 1.867-.693 3.39l-.005.345c.002.95.106 1.87.31 2.611.532 2.183 1.761 2.955 3.044 2.978h.087c1.282-.023 2.511-.795 3.043-2.978.204-.741.309-1.662.31-2.611l-.005-.344zm18.422 20.333l-2.33-6.244c.483-.364.86-1.062 1.027-1.758.163-.675.376-2.65.376-2.65h-1.906c-.012.2-.053.877-.112 1.564-.088 1.018-.385 1.957-1.415 1.957h-.794c-.002-.085 0-3.521 0-3.521h-1.938V37.07h1.938v-5.41s1.025.002 1.17 0l1.903 5.407h2.08z" fill="#fff"/></svg>