<svg width="194" height="48" viewBox="0 0 194 48" fill="none" xmlns="http://www.w3.org/2000/svg"><path d="M52.508 20.025c1.146 0 2.423.04 3.53.788.738.489 1.606 1.456 1.606 3.182 0 1.895-1.197 4.128-4.518 4.128h-2.793v5.196H47.89V20.025h4.618zm.1 6.154c.538 0 1.316.02 1.934-.559.429-.389.658-1.047.658-1.605 0-.519-.21-1.147-.638-1.516-.429-.37-1.107-.549-1.865-.549h-2.364v4.229h2.274zm7.29-1.736c.678-.638 1.685-1.196 3.191-1.196 1.516 0 2.523.558 3.201 1.196 1.008.948 1.526 2.424 1.526 3.93 0 1.506-.518 2.982-1.526 3.93-.678.637-1.685 1.206-3.201 1.206-1.506 0-2.513-.569-3.191-1.207-1.008-.947-1.526-2.423-1.526-3.93-.01-1.515.518-2.981 1.526-3.929zm1.645 6.722c.21.25.698.718 1.546.718.858 0 1.336-.459 1.546-.718.16-.17.738-.947.738-2.792 0-1.845-.579-2.613-.738-2.793a1.972 1.972 0 00-1.546-.718c-.848 0-1.336.459-1.546.718-.15.18-.738.948-.738 2.793 0 1.835.589 2.613.738 2.792zm14.002-4.109c-.04-.498-.23-1.087-.489-1.456-.239-.349-.698-.738-1.475-.738-.758 0-1.257.39-1.566.908-.489.798-.519 2.034-.519 2.603 0 .907.13 1.994.519 2.613.249.389.758.887 1.566.887.578 0 1.067-.23 1.436-.738.289-.409.488-.987.518-1.496l2.055.25c-.12.907-.519 1.924-1.237 2.573-.598.538-1.536 1.027-2.852 1.027-1.466 0-2.424-.578-2.982-1.107-.758-.718-1.476-1.995-1.476-4.01 0-1.874.638-3.001 1.147-3.6a4.437 4.437 0 013.37-1.545c1.227 0 2.234.428 2.863 1.087.638.638 1.027 1.605 1.167 2.473l-2.045.27zm9.614 0c-.04-.498-.23-1.087-.489-1.456-.229-.349-.698-.738-1.475-.738-.758 0-1.257.39-1.566.908-.479.798-.519 2.034-.519 2.603 0 .907.14 1.994.519 2.613.25.389.758.887 1.566.887.578 0 1.067-.23 1.436-.738a3.06 3.06 0 00.518-1.496l2.055.25c-.11.907-.519 1.924-1.237 2.573-.598.538-1.526 1.027-2.842 1.027-1.476 0-2.424-.578-2.982-1.107-.758-.718-1.476-1.995-1.476-4.01 0-1.874.638-3.001 1.147-3.6a4.437 4.437 0 013.37-1.545c1.217 0 2.225.428 2.863 1.087.638.638 1.027 1.605 1.167 2.473l-2.055.27zm12.417 3.391a4.152 4.152 0 01-1.626 2.244c-.778.519-1.785.818-2.852.818-1.337 0-2.693-.569-3.51-1.396-.759-.768-1.317-2.115-1.317-3.7 0-2.015.838-3.351 1.745-4.11.529-.448 1.516-1.066 3.002-1.066 1.885 0 3.082.867 3.72 1.765.678.927.997 2.224.997 3.35v.45h-7.01c0 .11-.02 1.007.328 1.725.519 1.087 1.476 1.356 2.135 1.356.518 0 1.176-.16 1.725-.718.329-.349.469-.678.518-.987l2.145.27zm-2.284-3.121c0-.559-.14-1.197-.43-1.626a2.138 2.138 0 00-1.744-.908 2.35 2.35 0 00-1.766.828c-.309.39-.578.988-.578 1.706h4.518zm12.007-3.89v9.883h-2.253v-8.207h-2.554c-.059 1.336-.099 1.875-.139 2.792-.06 1.027-.13 3.191-1.007 4.378a2.797 2.797 0 01-1.516 1.007c-.25.08-.52.11-.798.11-.19 0-.39-.02-.58-.08v-1.705h.19c.29-.02.679-.17.928-.369.778-.618.848-2.015.928-3.122.1-1.456.12-2.323.129-3.64l.02-1.047h6.652zm4.618 3.52h2.483c.638 0 1.875.08 2.693.888.738.718.808 1.726.808 2.264 0 1.416-.579 2.134-1.028 2.503-.159.12-.887.698-2.283.698h-4.917v-9.873h2.244v3.52zm0 4.728h1.765c.429 0 .888-.02 1.277-.35.229-.219.508-.578.508-1.206 0-.538-.159-.967-.598-1.257-.389-.249-.878-.289-1.177-.289h-1.765v3.102h-.01zm9.255-8.248l1.825 3.072 1.895-3.072h2.054l-2.892 4.468 3.431 5.405h-2.633l-2.244-3.72-2.364 3.72h-2.054l3.371-5.126-3.022-4.747h2.633zm8.048 1.007c.678-.638 1.686-1.196 3.191-1.196 1.516 0 2.524.558 3.202 1.196 1.007.948 1.526 2.424 1.526 3.93 0 1.506-.529 2.982-1.526 3.93-.678.637-1.686 1.206-3.202 1.206-1.505 0-2.513-.569-3.191-1.207-1.007-.947-1.526-2.423-1.526-3.93 0-1.515.519-2.981 1.526-3.929zm1.646 6.722c.209.25.698.718 1.545.718.858 0 1.337-.459 1.556-.718.15-.17.738-.947.738-2.792 0-1.845-.578-2.613-.738-2.793a1.978 1.978 0 00-1.556-.718 1.94 1.94 0 00-1.545.718c-.16.18-.738.948-.738 2.793 0 1.835.588 2.613.738 2.792zm7.479-5.056a3.472 3.472 0 011.586-2.184c.329-.21 1.237-.678 2.792-.678.968 0 1.955.17 2.693.578 1.087.599 1.356 1.466 1.356 2.094 0 .679-.329 1.975-2.014 2.165v.04c.578.08 1.217.329 1.606.737.349.37.618.988.618 1.646 0 .987-.579 1.855-1.317 2.344-.887.578-2.114.658-3.021.658-.918 0-2.304-.1-3.281-.868a3.402 3.402 0 01-1.197-2.094l2.034-.35c.08.31.25.779.479 1.048.509.588 1.296.638 1.805.638.509 0 1.047-.06 1.476-.349.389-.27.579-.638.579-1.127 0-.409-.08-.738-.429-1.027-.449-.369-1.047-.429-1.606-.429h-1.027v-1.516h1.027c.389 0 .947-.08 1.257-.23.409-.208.638-.558.638-1.126 0-.31-.12-.608-.409-.838-.449-.369-1.087-.389-1.416-.389-.449 0-1.107.06-1.646.519-.229.19-.538.558-.638 1.137l-1.945-.4zm20.136-3.76h-6.413v2.942h2.852c1.028 0 2.015.08 3.022.778.988.678 1.606 1.685 1.606 3.142 0 1.356-.509 2.363-1.147 3.001-.967.968-2.074 1.107-3.231 1.107h-6.203V20.025h9.514v2.324zm-6.413 8.637h2.503c.469 0 .898-.02 1.337-.47.429-.428.488-.907.488-1.276 0-.418-.119-.847-.488-1.216-.439-.44-1.008-.489-1.416-.489h-2.424v3.45zm9.076-4.807a3.567 3.567 0 011.705-2.324c.768-.449 1.795-.618 3.082-.618 1.625 0 3.271.21 4.009 1.745.389.798.349 1.646.349 2.384v3.82c0 .797.109 1.535.289 2.133h-2.812a8.534 8.534 0 01-.15-1.565c-.369.658-1.267 1.765-3.311 1.765-.908 0-1.845-.23-2.483-.758-.619-.509-1.008-1.317-1.008-2.204 0-.987.429-2.174 2.115-2.872 1.087-.45 2.852-.599 3.64-.639l.927-.04v-.209c0-.27-.02-.848-.289-1.167-.369-.429-1.107-.449-1.396-.449-.399 0-.888.04-1.297.29-.249.15-.578.468-.698 1.007l-2.672-.3zm5.485 2.463c-.968.08-1.935.18-2.484.848-.149.19-.309.488-.309.887 0 .43.21.718.429.868.269.21.678.31 1.067.31.579 0 1.257-.25 1.646-.719.06-.06.518-.638.518-1.765v-.519l-.867.09zm8.786-5.206v3.7h3.121v-3.7h2.883v9.873h-2.883v-4.148h-3.121v4.148h-2.882v-9.873h2.882zm11.14 0v3.8h.778c.837 0 1.186-.41 1.396-.858.409-.867.389-1.546.758-2.224.289-.538.678-.678.927-.718h2.384c-.309.33-.579.718-.758 1.067-.309.639-.598 1.686-.778 2.134-.229.619-.618 1.237-1.606 1.317v.04c.529.08 1.068.349 1.476.947.25.37.419.848.699 1.606.269.778.388 1.047.638 1.645.199.45.309.718.638 1.127h-2.713c-.428-.14-.718-.428-1.067-1.436-.269-.768-.309-1.047-.488-1.476l-.14-.349c-.289-.738-.678-.887-1.277-.887h-.867v4.148h-2.882v-9.883h2.882zM21.322 48C9.564 48 0 38.446 0 26.688c0-6.752 3.102-12.965 8.507-17.034l.22-.18V0h12.236v5.375h.36c11.747 0 21.312 9.565 21.312 21.323C42.635 38.446 33.07 48 21.322 48z" fill="#19502E"/><path d="M15.149 27.026l4.438-4.358v-2.962l-4.438 4.339v2.981zm0-11.04l4.438-4.368V8.826l-4.438 4.338v2.822zm0 3.65l4.438-4.358v-2.792l-4.438 4.338v2.813zm-1.267-10.78l-.588-.569V1.376h-.678v6.253l-.579-.578V1.376h-.678v5.026l-.588-.578V1.376h-.669v6.592l4.448 4.358V1.376h-.668v7.48zm1.267 14.43l4.438-4.358v-2.792l-4.438 4.338v2.813zm-5.046-.618l4.447 4.358v-2.981l-4.448-4.339v2.962zm8.816-16.844l-.589.578V1.376h-.668v5.685l-.588.568V1.376h-.669v6.901l-.588.579v-7.48h-.668v10.95l4.438-4.358V1.376h-.668v4.448zm-8.817 5.794l4.448 4.368v-2.822l-4.448-4.338v2.792zm0 3.66l4.448 4.359v-2.813l-4.448-4.338v2.792zm0 3.65l4.448 4.359v-2.813l-4.448-4.338v2.792zm26.459 2.304h-10.8c.229-.359.358-.778.358-1.226a2.328 2.328 0 00-4.657 0c0 .508.16.967.439 1.346a.743.743 0 000 1.247c-.27.378-.44.847-.44 1.346a2.32 2.32 0 002.324 2.324 2.328 2.328 0 002.334-2.324c0-.449-.13-.878-.359-1.227h8.038v.489h-.797v.688h.797v.708h-.797v1.306h.797v-.588h1.177v.588h.788v-1.306h-.788v-.708h.788v-.688h-.788v-.489h1.586c.309 0 .558-.26.558-.568v-.35a.572.572 0 00-.558-.568zm-11.569 2.713a1.202 1.202 0 01-2.403 0c0-.24.07-.469.2-.658l.328-.569a.98.98 0 01-.339-.748.98.98 0 01.34-.748l-.33-.568c-.13-.19-.2-.41-.2-.658a1.2 1.2 0 011.197-1.197c.659 0 1.207.538 1.207 1.197 0 .488-.568 1.655-.568 1.655v.628c0 .01.568 1.177.568 1.666z" fill="#FFCB05"/><path d="M6.063 19.816v2.903c0 2.772 1.207 4.557 1.905 5.245.41.4 4.538 4.468 4.598 4.518 1.286 1.257 1.506 1.666 1.795 2.384v-3.212c0-2.862-1.446-3.969-2.194-4.697-1.745-1.695-2.902-2.812-3.85-3.75-1.775-1.785-2.254-3.39-2.254-3.39zm6.104 14.312c-1.735-1.706-2.902-2.813-3.84-3.75-1.785-1.785-2.254-2.992-2.254-2.992v2.503c0 2.773 1.257 4.538 1.895 5.266.41.399 4.548 4.448 4.598 4.498 1.286 1.256 1.506 1.855 1.795 2.563v-3.391c0-2.862-1.456-3.97-2.194-4.697z" fill="#fff"/><path d="M21.322 6.742c-.32 0-.638.01-.957.02v1.356c.319-.02.628-.02.957-.02 10.262 0 18.58 8.318 18.58 18.59 0 10.262-8.318 18.58-18.58 18.58-10.262 0-18.59-8.318-18.59-18.58 0-5.694 2.563-10.79 6.602-14.201V10.75c-4.836 3.64-7.958 9.425-7.958 15.937 0 11.01 8.926 19.936 19.946 19.936 11.01 0 19.936-8.926 19.936-19.936S32.332 6.742 21.322 6.742z" fill="#fff"/><path d="M35.424 37.1c.309-.419.598-.858.877-1.306V33.12h-.877v3.98zm2.553-4.957c.13-.389.24-.777.339-1.166h-2.892v.708h.439c.767-.02 1.635-.03 2.114.458zM18.72 30.877h-.789v7.948h.788v-7.948z" fill="#fff"/><path d="M16.126 29.351h2.593c.668 0 1.137.14 1.406.4.27.258.4.727.4 1.395v7.43c0 .669-.13 1.137-.4 1.397-.409.408-1.166.408-1.795.408-.14-.01-.279-.01-.399-.01v3.52c.26.05.519.1.788.14V41.14c1.197 0 1.975-.409 2.344-1.226v4.308h.26c.159 0 .328 0 .488-.01V31.276c0-.688.14-1.167.399-1.436.26-.27.728-.409 1.386-.409.668 0 1.656-.1 2.164.409.26.27.38.758.38 1.436v3.81h-1.776v-4.07h-.768v13.056c.26-.03.509-.07.768-.12v-8.098h1.775v7.689c.37-.1.728-.22 1.087-.35v-7.04c0-.798.19-1.396.998-1.666l-.898-4.896h1.795l.3 5.345h.219l.299-5.345h1.895l-1.017 4.896c.847.3 1.017.818 1.017 1.666V40.7a16.68 16.68 0 001.506-1.277V29.54h5.265c.04-.24.07-.469.1-.718H26.398l.17.887c-.389-.718-1.127-1.077-2.214-1.077h-.768c-1.306 0-2.094.519-2.403 1.556-.28-1.087-1.107-1.625-2.474-1.625h-3.37v14.59c.259.09.518.18.777.26V29.35h.01zm16.346 5.615l-.848-.808.848-4.388v5.196z" fill="#fff"/><path d="M29.13 42.386c.27-.14.54-.28.809-.429v-6.014h-.808v6.443z" fill="#fff"/></svg>