<svg width="180" height="28" viewBox="0 0 180 28" fill="none" xmlns="http://www.w3.org/2000/svg"><path d="M80.5 8.5l3.8-2.8H71.7v16.6h12.6v-2.8h-9v-4.2h7.6v-2.8h-7.6v-4h5.2zm-15.7 0l3.8-2.8H54.2v16.6h7.5c4.2 0 6.6-1.9 6.6-5.2 0-3.2-2.2-4.9-6.2-4.9h-4.4V8.5h7.1zm-3.2 6.4c2.3 0 3.3.8 3.3 2.3 0 1.5-1.1 2.3-3.3 2.3h-3.8v-4.6h3.8zm32.8-9.2h-6.8v16.6h3.6v-4.7h3.3c4.4 0 7.1-2.3 7.1-6s-2.8-5.9-7.2-5.9zm0 9.1h-3.2V8.4h3.2c2.3 0 3.6 1.1 3.6 3.2-.1 2.1-1.3 3.2-3.6 3.2zm-46.3 3.9c-1 .5-2 .8-3.1.8-3.2 0-5.6-2.3-5.6-5.5s2.3-5.5 5.6-5.5c1.2 0 2.3.4 3.3 1l2.6-1.9-.2-.2c-1.5-1.3-3.5-2-5.8-2-2.5 0-4.7.8-6.4 2.4-1.6 1.6-2.6 3.8-2.5 6.1 0 2.3.9 4.5 2.5 6.2 1.7 1.6 4 2.5 6.3 2.4 2.6 0 4.8-.9 6.4-2.5l-2.3-1.7-.8.4zM156 12.5h-7.7V5.7h-3.6v16.6h3.6v-6.8h7.7v6.8h3.6V5.7H156v6.8zm-24.3-6.8l-7.2 16.6h3.6l1.4-3.3h7.6l1.4 3.3h3.8l-7-16.6h-3.6zm-1 10.5l2.8-6.7 2.6 6.7h-5.4zm41.9-2.5l6.5-8H175l-5.4 7.1h-2V5.7H164v16.6h3.6v-6.7h2.3l5.5 6.7h4.6l-7.4-8.6zM117 12.2h-4.4V8.5h9.4V5.7h-13v16.6h7.5c4.2 0 6.6-1.9 6.6-5.2.1-3.2-2.1-4.9-6.1-4.9zm-.6 7.4h-3.8V15h3.8c2.3 0 3.3.8 3.3 2.3.1 1.5-1.1 2.3-3.3 2.3zM24.481 5.38c.65.851 1.2 1.776 1.638 2.755l-12.449 9.3-5.203-3.305v-3.977l5.203 3.306L24.481 5.38z" fill="#21A038"/><path d="M3.157 13.85c0-.179.005-.356.013-.532L.017 13.16a13.974 13.974 0 001.021 5.99 13.825 13.825 0 002.965 4.49l2.236-2.265a10.623 10.623 0 01-2.282-3.452 10.737 10.737 0 01-.8-4.074z" fill="url(#paint0_linear_261_751)"/><path d="M13.667 3.2c.176 0 .35.006.525.015l.157-3.197a13.472 13.472 0 00-5.914 1.035 13.619 13.619 0 00-4.432 3.005l2.236 2.266a10.464 10.464 0 013.406-2.313 10.351 10.351 0 014.022-.811z" fill="url(#paint1_linear_261_751)"/><path d="M13.667 24.5c-.176 0-.351 0-.526-.014l-.158 3.196a13.462 13.462 0 005.912-1.034 13.612 13.612 0 004.43-3.006l-2.232-2.265a10.469 10.469 0 01-3.405 2.313 10.352 10.352 0 01-4.021.81z" fill="url(#paint2_linear_261_751)"/><path d="M19.59 5.057l2.658-1.984A13.493 13.493 0 0013.663 0v3.199a10.36 10.36 0 015.928 1.858z" fill="url(#paint3_linear_261_751)"/><path d="M27.333 13.85c.001-.832-.07-1.663-.215-2.482l-2.941 2.197v.285c0 1.488-.308 2.96-.904 4.32a10.619 10.619 0 01-2.559 3.574l2.122 2.377a13.81 13.81 0 003.325-4.651 13.973 13.973 0 001.172-5.62z" fill="#21A038"/><path d="M13.667 24.5a10.37 10.37 0 01-4.263-.915 10.494 10.494 0 01-3.527-2.593l-2.344 2.15a13.638 13.638 0 004.59 3.37 13.476 13.476 0 005.544 1.188v-3.2z" fill="url(#paint4_linear_261_751)"/><path d="M6.62 5.956L4.498 3.579a13.807 13.807 0 00-3.327 4.65A13.971 13.971 0 000 13.85h3.157c0-1.488.308-2.96.904-4.32a10.62 10.62 0 012.558-3.573z" fill="url(#paint5_linear_261_751)"/><defs><linearGradient id="paint0_linear_261_751" x1="4.641" y1="23.242" x2="1.109" y2="13.166" gradientUnits="userSpaceOnUse"><stop offset=".14" stop-color="#F1E813"/><stop offset=".3" stop-color="#E6E418"/><stop offset=".58" stop-color="#C9DA26"/><stop offset=".89" stop-color="#A2CC39"/></linearGradient><linearGradient id="paint1_linear_261_751" x1="4.904" y1="4.623" x2="13.819" y2="1.271" gradientUnits="userSpaceOnUse"><stop offset=".06" stop-color="#0FA7DF"/><stop offset=".54" stop-color="#0098F8"/><stop offset=".92" stop-color="#0290EA"/></linearGradient><linearGradient id="paint2_linear_261_751" x1="12.775" y1="25.769" x2="22.835" y2="23.526" gradientUnits="userSpaceOnUse"><stop offset=".12" stop-color="#A2CC39"/><stop offset=".28" stop-color="#86C239"/><stop offset=".87" stop-color="#219F38"/></linearGradient><linearGradient id="paint3_linear_261_751" x1="13.006" y1="1.071" x2="21.615" y2="3.693" gradientUnits="userSpaceOnUse"><stop offset=".06" stop-color="#0290EA"/><stop offset=".79" stop-color="#0C89CA"/></linearGradient><linearGradient id="paint4_linear_261_751" x1="4.325" y1="22.752" x2="13.705" y2="26.211" gradientUnits="userSpaceOnUse"><stop offset=".13" stop-color="#F1E813"/><stop offset=".3" stop-color="#EAE616"/><stop offset=".53" stop-color="#D8DF1F"/><stop offset=".8" stop-color="#BAD52D"/><stop offset=".98" stop-color="#A2CC39"/></linearGradient><linearGradient id="paint5_linear_261_751" x1="1.176" y1="14.237" x2="5.017" y2="4.377" gradientUnits="userSpaceOnUse"><stop offset=".07" stop-color="#A2CC39"/><stop offset=".26" stop-color="#81C45E"/><stop offset=".92" stop-color="#0FA7DF"/></linearGradient></defs></svg>