<svg width="125" height="47" viewBox="0 0 125 47" fill="none" xmlns="http://www.w3.org/2000/svg"><path d="M.03 6.97C2.196 4.666 4.367 2.368 6.535.07c1.3-.002 2.599 0 3.898 0 .002 8.27 0 16.542 0 24.813H.031V6.97zm2.775 1.189c-.073.09-.195.175-.169.31V22.12c1.736.002 3.472.001 5.207.001 0-6.43.002-12.86 0-19.29C6.16 4.603 4.488 6.386 2.804 8.158zM13.05.069h10.396v24.814H13.049c-.001-8.271-.002-16.542 0-24.813zm2.596 2.76c-.001 6.43 0 12.86 0 19.292h5.218V2.828h-5.218zM26.052 6.97c2.167-2.303 4.34-4.601 6.512-6.9 1.302-.002 2.602 0 3.904-.002.003 1.384 0 2.766.002 4.149L40.39.07c1.294-.003 2.59 0 3.885-.002.006 8.271 0 16.543.003 24.814-.87.003-1.74.001-2.612.001-.002-7.35.003-14.702 0-22.053-1.734 1.839-3.47 3.677-5.199 5.52.006 5.511.001 11.022.003 16.533-.87 0-1.737.002-2.605 0-.001-7.351.002-14.701-.002-22.05-1.71 1.804-3.416 3.613-5.123 5.421-.132.106-.075.285-.088.43.005 5.4.001 10.8.002 16.2h-2.601c-.002-5.972 0-11.944-.002-17.914zm54.672 10.635c2.575 0 5.15-.002 7.725 0 .003.72.003 1.438 0 2.157-1.818.002-3.635 0-5.453 0v2.503c.827.003 1.656-.004 2.485.003.94.006 1.903.32 2.587.983.7.662 1.06 1.624 1.11 2.575.07 1.086-.21 2.242-.969 3.053-.688.755-1.72 1.114-2.725 1.121-1.587.005-3.173.001-4.76.002-.002-4.132-.003-8.265 0-12.397zm2.272 6.823v3.413c.794-.002 1.59.007 2.385-.005.514-.005 1.034-.267 1.285-.726.296-.544.307-1.228.073-1.796-.223-.54-.794-.884-1.371-.883-.791-.012-1.582 0-2.372-.003zm12.257-6.823c.599-.002 1.195 0 1.794 0 1.422 4.132 2.841 8.265 4.259 12.397h-2.368c-.254-.724-.427-1.494-.728-2.19-1.37-.012-2.739.001-4.108-.006-.243.73-.471 1.464-.707 2.196H91.01c1.414-4.132 2.83-8.264 4.243-12.396zm.966 3.657l-1.478 4.51c.969.001 1.937 0 2.907 0-.476-1.504-.951-3.007-1.43-4.51zm7.481-3.657h2.283c.002 1.687-.001 3.372.002 5.058a2178 2178 0 003.96 0c.002-1.686 0-3.372.001-5.058h2.27c-.001 4.133.002 8.266-.001 12.398h-2.268c-.005-1.731.006-3.462-.005-5.193-1.321.004-2.64-.004-3.96.004.004 1.729.001 3.459.001 5.188H103.7V17.605zm12.095 0c.759-.002 1.515 0 2.275 0 .004 1.959-.001 3.918.001 5.879 1.258-1.959 2.517-3.914 3.769-5.875.906-.009 1.814-.002 2.722-.004-1.302 1.938-2.609 3.873-3.911 5.811l4.31 6.586-2.785.001c-1.372-2.156-2.732-4.32-4.102-6.477-.006 2.159 0 4.318-.004 6.476l-2.274.001c-.006-4.132 0-8.265-.001-12.398zM.031 27.642c14.75-.002 29.497-.002 44.247 0v2.75c-14.75.003-29.498.002-44.247 0v-2.75zm0 5.508H18.25v11.027c-5.206.002-10.41 0-15.614.001-.001.917.001 1.834-.001 2.75-.868.002-1.736.002-2.604 0V33.15zm2.605 2.761c-.001 1.835.001 3.67-.001 5.506 4.336.007 8.673.002 13.009.003v-5.51H2.636zm18.227-2.76c7.805-.003 15.61-.002 23.415 0v11.026c-3.471.003-6.943 0-10.413.001-.002.917 0 1.834-.001 2.75-.868.002-1.736.002-2.603 0-.003-.916 0-1.833-.002-2.748-3.464-.003-6.928-.002-10.394-.002-.005-3.675 0-7.35-.002-11.026zm2.583 2.76v5.509l7.814-.001V35.91h-7.814zm10.418 0v5.509h7.801c.001-1.837.002-3.673 0-5.509-2.6-.001-5.2-.002-7.801 0z" fill="#3D4C55"/><path d="M62.492.07c.867-.002 1.734-.002 2.6 0 .002 15.616.002 31.234 0 46.851h-2.6V.07z" fill="#95C12E"/></svg>