<svg xmlns="http://www.w3.org/2000/svg" width="55" height="55" viewBox="0 0 55 55"><path d="M50.3 27H8.9V6.7c0-1.7 1.4-3.1 3.1-3.1h4.6c1.7 0 3.1 1.4 3.1 3.1v3.8h-2.2c-1.7 0-3.1 1.4-3.1 3.1v2h12.2v-2c0-1.7-1.4-3.1-3.1-3.1h-2.2V6.7c0-2.5-2.1-4.6-4.6-4.6H12c-2.5 0-4.6 2.1-4.6 4.6V27H4.1c-.9 0-1.6.7-1.6 1.6V31c0 .9.7 1.6 1.6 1.6h46.2c.9 0 1.6-.7 1.6-1.6v-2.4c-.1-.9-.8-1.6-1.6-1.6zM6.4 44.7c.2 2.2 2 3.9 4.2 3.9h.7v3.6h5.9v-3.6h19.2v3.6h5.9v-3.6h1.8c2.2 0 4-1.7 4.2-3.9l1-11H5.4l1 11z" fill="#7a98ab"/></svg>