<svg xmlns="http://www.w3.org/2000/svg" width="55" height="55" viewBox="0 0 55 55"><path d="M50.2 26.1H9.1V6.5c0-1.7 1.4-3.1 3.1-3.1h4.6c1.7 0 3.1 1.4 3.1 3.1v3.1h-1.5c-2.5 0-4.6 2.1-4.6 4.6v1.3c0 .4.3.7.7.7h12.3c.4 0 .7-.3.7-.7v-1.3c0-2.5-2.1-4.6-4.6-4.6h-1.5V6.5c0-2.5-2.1-4.6-4.6-4.6h-4.6C9.7 1.9 7.6 4 7.6 6.5v19.6h-3c-1.5 0-2.6 1.2-2.6 2.6v1.7C2 31.9 3.2 33 4.6 33h.2l1.1 11.6c.2 2.6 2.4 4.5 4.9 4.5V52c0 .4.3.7.7.7h5.9c.4 0 .7-.3.7-.7v-2.9h17.8V52c0 .4.3.7.7.7h5.9c.4 0 .7-.3.7-.7v-2.9h1.1c2.6 0 4.7-2 5-4.6L50.4 33c1.4-.1 2.4-1.2 2.4-2.6v-1.7c0-1.4-1.2-2.6-2.6-2.6zM26 14.2v.5H15.2v-.5c0-1.7 1.4-3.1 3.1-3.1h4.6c1.7 0 3.1 1.4 3.1 3.1zm-9.3 37.2h-4.4v-2.2h4.4v2.2zm25.1 0h-4.4v-2.2h4.4v2.2zm6.1-6.9c-.2 1.8-1.7 3.2-3.5 3.2H10.8c-1.8 0-3.3-1.4-3.5-3.2L6.3 33h42.6l-1 11.5zm3.5-14.1c0 .6-.5 1.2-1.2 1.2H4.6c-.6 0-1.2-.5-1.2-1.2v-1.7c0-.6.5-1.2 1.2-1.2h45.5c.6 0 1.2.5 1.2 1.2v1.7z" fill="#7a98ab"/></svg>