<svg version="1.1" id="Слой_1" xmlns="http://www.w3.org/2000/svg" x="0" y="0" width="55" height="55" viewBox="0 0 55 55" xml:space="preserve"><style>.st0{fill:#7a98ab}</style><path class="st0" d="M2.1 40h50.1v4H2.1z"/><path class="st0" d="M8.6 49.4c-.4 0-.8-.3-.8-.8V44c0-.4.3-.8.8-.8s.8.3.8.8v4.7c-.1.4-.4.7-.8.7zm37.2 0c-.4 0-.8-.3-.8-.8V44c0-.4.3-.8.8-.8s.8.3.8.8v4.7c0 .4-.4.7-.8.7zM5.1 22.2V38h3.3v-2.5c0-1.2 1-2.2 2.2-2.2h32.8c1.2 0 2.2 1 2.2 2.2V38h3.2V22.2H5.1zM25.3 32h-12v-1.9c0-1.2 1-2.2 2.2-2.2h7.6c1.2 0 2.2 1 2.2 2.2V32zm15.5 0h-12v-1.9c0-1.2 1-2.2 2.2-2.2h7.6c1.2 0 2.2 1 2.2 2.2V32zM34.9 3.3H19.5c-1.5 0-2.7 1.2-2.7 2.7v8c0 1.5 1.2 2.7 2.7 2.7h15.4c1.5 0 2.7-1.2 2.7-2.7V6c0-1.5-1.2-2.7-2.7-2.7zm-.7 10.4H20.1V6.4h14.1v7.3z"/></svg>