<svg version="1.1" id="Слой_1" xmlns="http://www.w3.org/2000/svg" x="0" y="0" width="55" height="55" viewBox="0 0 55 55" xml:space="preserve"><style>.st0{fill:#7a98ab}</style><path class="st0" d="M52.7 46.6H2.5c-.4 0-.8-.3-.8-.8v-4c0-.4.3-.8.8-.8h50.2c.4 0 .8.3.8.8v4c0 .5-.4.8-.8.8zM3.2 45.1H52v-2.5H3.2v2.5zm43-4.5c-.4 0-.8-.3-.8-.8v-2.5c0-.8-.7-1.5-1.5-1.5H11c-.8 0-1.5.7-1.5 1.5v2.5c0 .4-.3.8-.8.8-.4 0-.8-.3-.8-.8v-2.5c0-1.6 1.3-3 3-3H44c1.6 0 3 1.3 3 3v2.5c-.1.5-.4.8-.8.8z"/><path class="st0" d="M46.3 51.3c-.4 0-.8-.3-.8-.8v-3.9H9.7v3.9c0 .4-.3.8-.8.8-.4 0-.8-.3-.8-.8v-4.7c0-.4.3-.8.8-.8h37.3c.4 0 .8.3.8.8v4.7c0 .5-.3.8-.7.8zM25.7 34.6c-.4 0-.8-.3-.8-.8v-1.9c0-.8-.7-1.5-1.5-1.5h-7.6c-.8 0-1.5.7-1.5 1.5v1.9c0 .4-.3.8-.8.8-.4 0-.8-.3-.8-.8v-1.9c0-1.6 1.3-3 3-3h7.6c1.6 0 3 1.3 3 3v1.9c.2.5-.2.8-.6.8zm15.6 0c-.4 0-.8-.3-.8-.8v-1.9c0-.8-.7-1.5-1.5-1.5h-7.6c-.8 0-1.5.7-1.5 1.5v1.9c0 .4-.3.8-.8.8-.4 0-.8-.3-.8-.8v-1.9c0-1.6 1.3-3 3-3H39c1.6 0 3 1.3 3 3v1.9c0 .5-.3.8-.7.8z"/><path class="st0" d="M49.4 40.6c-.4 0-.8-.3-.8-.8v-15H6.2v15.1c0 .4-.3.8-.8.8-.4 0-.8-.3-.8-.8V24.1c0-.4.3-.8.8-.8h43.9c.4 0 .8.3.8.8v15.8c0 .4-.3.7-.7.7zM35.3 19.3H19.9c-1.9 0-3.5-1.6-3.5-3.5v-8c0-1.9 1.6-3.5 3.5-3.5h15.5c1.9 0 3.5 1.6 3.5 3.5v8c-.1 1.9-1.6 3.5-3.6 3.5zM19.9 5.8c-1.1 0-2 .9-2 2v8c0 1.1.9 2 2 2h15.5c1.1 0 2-.9 2-2v-8c0-1.1-.9-2-2-2H19.9z"/><path class="st0" d="M34.7 16.2H20.5c-.4 0-.8-.3-.8-.8V8.1c0-.4.3-.8.8-.8h14.1c.4 0 .8.3.8.8v7.3c0 .5-.3.8-.7.8zm-13.4-1.5h12.6V8.9H21.3v5.8z"/></svg>