<svg version="1.1" id="Слой_1" xmlns="http://www.w3.org/2000/svg" x="0" y="0" width="55" height="55" viewBox="0 0 55 55" xml:space="preserve"><style>.st0{fill:#7a98ab}</style><path class="st0" d="M48.3 22.2v5.9h-4.1V17.4h1.5v-3.8H29.8v-3.4h7.3V3.3H12v6.8h6.9v3.4H3.1v3.8h1.8v25.1h2.4-4.2v7.1h43v-7.1h-5.7v5.7L28.2 48l.1-5.6V28.2h12.2v14.3h3.7V36h4.1v4.9h5.1V22.2h-5.1zM31.5 4.3h2c.6 0 1.1.2 1.5.5.4.2.5.7.5 1.2s-.2 1-.6 1.3c-.4.3-.9.5-1.5.5h-1.1v1.4h-.9V4.3zm-5.5.6c.5-.5 1.1-.7 1.9-.7.8 0 1.4.2 1.9.7.5.5.7 1.1.7 1.8s-.2 1.3-.7 1.8c-.5.5-1.1.7-1.9.7-.8 0-1.4-.2-1.9-.7-.5-.5-.7-1.1-.7-1.8-.1-.7.2-1.3.7-1.8zm-6.1-.6h.9v2h2.5v-2h.9v4.9h-.9V7.1h-2.5v2.1h-.9V4.3zm-1.4 4.5c-.3.3-.8.4-1.5.4-.4 0-.7-.1-1.1-.2-.4-.1-.6-.2-.8-.4l.3-.7c.2.2.4.3.7.4.3.1.6.1.9.1.4 0 .6-.1.8-.2.2 0 .3-.2.3-.4 0-.1-.1-.3-.2-.4-.1-.1-.2-.2-.4-.2-.2-.1-.4-.1-.6-.1-.2 0-.4-.1-.6-.2-.2-.1-.4-.1-.6-.2-.2-.1-.3-.2-.4-.4-.1-.2-.2-.4-.2-.6 0-.4.2-.8.5-1 .3-.3.8-.4 1.5-.4.6 0 1.2.1 1.6.4l-.3.7c-.3-.3-.7-.4-1.2-.4-.4 0-.6.1-.8.2-.2.1-.3.3-.3.5 0 .1.1.3.2.3.1.1.2.2.4.2.2.1.4.1.6.2.2 0 .4.1.6.2.2.1.4.1.6.2.2.1.3.2.4.4.1.1.1.3.1.6 0 .4-.1.7-.5 1zm5.3 20.1v10H8v-10h15.8zm16.6-4.6H28.3v-3.2h12.2v3.2z"/><path class="st0" d="M34.3 6.7c.2-.2.3-.4.3-.7s-.1-.6-.3-.7c-.2-.2-.5-.3-.9-.3h-1.1v2h1.1c.4 0 .7-.1.9-.3zm-6.4 1.7c.5 0 .9-.2 1.2-.5.3-.3.5-.7.5-1.2s-.2-.9-.5-1.2c-.3-.3-.7-.5-1.2-.5s-.9.2-1.2.5c-.3.3-.5.7-.5 1.2s.2.9.5 1.2c.3.4.7.5 1.2.5z"/></svg>