<svg version="1.1" id="Слой_1" xmlns="http://www.w3.org/2000/svg" x="0" y="0" width="55" height="55" viewBox="0 0 55 55" xml:space="preserve"><style>.st0{fill:#7a98ab}</style><path class="st0" d="M28.6 24.6h11.3c.3 0 .5-.2.5-.5v-3c0-.3-.2-.5-.5-.5H28.6c-.3 0-.5.2-.5.5v3c0 .3.2.5.5.5zm.6-2.9h10.2v1.9H29.2v-1.9zm-4.8 6.1H9.9c-.3 0-.5.2-.5.5v9.2c0 .3.2.5.5.5h14.6c.3 0 .5-.2.5-.5v-9.2c0-.2-.3-.5-.6-.5zm-.5 9.3H10.4v-8.2h13.5v8.2z"/><path class="st0" d="M53.7 47h-8v-6c0-.3-.2-.5-.5-.5h-1.3v-4.9h2.8v4c0 .3.2.5.5.5h4.7c.3 0 .5-.2.5-.5V22.2c0-.3-.2-.5-.5-.5h-4.7c-.3 0-.5.2-.5.5v5h-2.8v-8.9h.8c.3 0 .5-.2.5-.5v-3.5c0-.3-.2-.5-.5-.5H30.6v-2.1h6.2c.3 0 .5-.2.5-.5V4.7c0-.3-.2-.5-.5-.5H13.6c-.3 0-.5.2-.5.5V11c0 .3.2.5.5.5h5.9v2.1H5.3c-.3 0-.5.2-.5.5v3.5c0 .3.2.5.5.5h1.1v22.2H5.3c-.3 0-.5.2-.5.5v6H2.2c-.3 0-.5.2-.5.5s.2.5.5.5h51.6c.3 0 .5-.2.5-.5 0 0-.3-.3-.6-.3zm-6-24.3h3.7v16.2h-3.7V22.7zm-1.1 5.5v6.2h-2.8v-6.2h2.8zm-32.5-23h22.2v5.2H14.1V5.2zm6.4 6.3h9v2.1h-9v-2.1zM5.9 14.7h38.3v2.5H5.9v-2.5zm1.6 3.5h35.3v22.3h-2.4V27.7c0-.3-.2-.5-.5-.5H28.6c-.3 0-.5.2-.5.5v12.7H7.5V18.2zm31.8 25.5H29.2V28.2h10.2v15.5zM5.9 41.5h22.2V47H5.9v-5.5zM29.2 47v-2.2h10.2V47H29.2zm11.2 0v-5.5h4.2V47h-4.2z"/><path class="st0" d="M19.9 8.2c-.1-.2-.2-.3-.4-.4-.2-.1-.3-.2-.5-.2-.2-.1-.4-.1-.6-.2-.2 0-.4-.1-.5-.1-.2 0-.3-.1-.4-.2-.1-.1-.1-.2-.1-.3 0-.2.1-.3.2-.4.2-.1.4-.2.7-.2.4 0 .8.1 1.2.4l.3-.7c-.4-.3-.9-.4-1.5-.4s-1 .1-1.4.4c-.3.3-.5.6-.5 1 0 .2 0 .4.1.6.1.2.2.3.4.4.3 0 .5.1.7.1.2.1.4.1.6.2.2 0 .4.1.5.1.2 0 .3.1.4.2.1.1.1.2.1.3 0 .2-.1.3-.2.4-.2.1-.4.2-.8.2-.3 0-.5 0-.8-.1-.3-.1-.5-.2-.7-.4l-.3.7c.2.2.4.3.8.4.3.1.7.1 1 .1.6 0 1-.1 1.4-.4.3-.3.5-.6.5-1 0-.1-.1-.3-.2-.5zm1.8 0h2.4v1.9h.8V5.6h-.8v1.8h-2.4V5.6h-.8v4.5h.8zm6.5 2c.7 0 1.3-.2 1.7-.7.5-.4.7-1 .7-1.7s-.2-1.2-.6-1.6c-.5-.4-1-.7-1.7-.7s-1.3.2-1.7.7c-.5.4-.7 1-.7 1.7s.2 1.2.7 1.7c.4.3.9.6 1.6.6zm-1.1-3.5c.3-.3.7-.4 1.1-.4.5 0 .8.1 1.1.4.3.3.5.7.5 1.1 0 .5-.2.8-.5 1.1-.3.3-.7.4-1.1.4-.5 0-.8-.1-1.1-.4-.3-.3-.5-.7-.5-1.1.1-.4.2-.8.5-1.1zm5.3 2.1h1c.6 0 1.1-.1 1.4-.4.3-.3.5-.7.5-1.2s-.2-.9-.5-1.2c-.3-.3-.8-.4-1.4-.4h-1.9v4.5h.8V8.8zm0-2.5h1c.4 0 .6.1.8.2.2.2.3.4.3.7 0 .3-.1.5-.3.7-.2.1-.4.2-.8.2h-1V6.3z"/></svg>