<svg height="512" viewBox="0 0 64 64" width="512" xmlns="http://www.w3.org/2000/svg"><g data-name="Smart home"><path d="M43 56h-1V27.64l3.463 2.2A1 1 0 0047 29v-4a1 1 0 00-.463-.844l-22-14a1 1 0 00-1.074 0l-22 14A1 1 0 001 25v4a1 1 0 001.537.844L6 27.64V56H5a3 3 0 000 6h38a3 3 0 000-6zM3 25.549l21-13.363 21 13.363v1.63L24.537 14.156a1 1 0 00-1.074 0L3 27.179zm5 .818l16-10.181 16 10.181V56h-9V39a1 1 0 00-1-1H18a1 1 0 00-1 1v17H8zM29 56H19V40h10zm14 4H5a1 1 0 010-2h38a1 1 0 010 2z"/><path d="M59 32H49a3 3 0 00-3 3v16a3 3 0 003 3h10a3 3 0 003-3V35a3 3 0 00-3-3zm-10 2h10a1 1 0 011 1v10H48V35a1 1 0 011-1zm10 18H49a1 1 0 01-1-1v-4h12v4a1 1 0 01-1 1zM44 4a12.95 12.95 0 019.194 3.809l1.412-1.418a15 15 0 00-21.212 0l1.412 1.418A12.95 12.95 0 0144 4z"/><path d="M44 6a10.929 10.929 0 00-7.777 3.223l1.414 1.414a9 9 0 0112.726 0l1.414-1.414A10.929 10.929 0 0044 6z"/><path d="M48.95 12.056a6.987 6.987 0 00-9.9 0l1.42 1.408a4.988 4.988 0 017.06 0zM41 17a3 3 0 103-3 3 3 0 00-3 3zm4 0a1 1 0 11-1-1 1 1 0 011 1zm4-1h2v2h-2zm4 0h2v2h-2zm0 4h2v2h-2zm0 4h2v2h-2zm0 4h2v2h-2zm0 21h2v2h-2zm4-11h2v-2a1 1 0 00-1-1h-2v2h1zm-32 9h2v2h-2z"/></g></svg>