<svg height="512" viewBox="0 0 609.62 609.62" width="512" xmlns="http://www.w3.org/2000/svg"><path d="M50.802 0C22.759.034.034 22.759 0 50.802v508.19c.056 28.006 22.796 50.668 50.802 50.629H589.3c11.223 0 20.321-9.098 20.321-20.321V101.603c0-11.223-9.098-20.321-20.321-20.321H101.603v-30.48C101.57 22.759 78.845.034 50.802 0zm0 20.321c16.834 0 30.481 13.647 30.481 30.481v40.744l.203 426.805a51.177 51.177 0 00-42.531-8.982 49.54 49.54 0 00-18.634 8.646V50.802c0-16.835 13.647-30.481 30.481-30.481zM589.3 101.603V589.3H50.802a30.483 30.483 0 01-30.481-30.623v-.152c.025-2.367.304-4.724.833-7.031a30.217 30.217 0 0122.353-22.353 30.744 30.744 0 0125.746 5.354 19.934 19.934 0 0021.042 1.961 20.321 20.321 0 0011.308-18.218V101.603z"/><path d="M152.405 406.414h264.169v10.16c0 5.611 4.549 10.16 10.16 10.16s10.16-4.549 10.16-10.16v-40.641c0-5.611-4.549-10.16-10.16-10.16s-10.16 4.549-10.16 10.16v10.16H264.169V274.329h162.565c5.611 0 10.16-4.549 10.16-10.16s-4.549-10.16-10.16-10.16h-30.481V142.245h142.245c5.611 0 10.16 4.549 10.16 10.16v101.603h-50.802c-5.611 0-10.16 4.549-10.16 10.16s4.549 10.16 10.16 10.16h50.802v101.603c0 5.611-4.549 10.16-10.16 10.16h-30.481v-10.16c0-5.611-4.549-10.16-10.16-10.16s-10.16 4.549-10.16 10.16v40.641c0 5.611 4.549 10.16 10.16 10.16s10.16-4.549 10.16-10.16v-10.16h30.481c16.834 0 30.481-13.647 30.481-30.481V152.405c0-16.834-13.647-30.481-30.481-30.481H152.405c-16.834 0-30.481 13.647-30.481 30.481v223.527c0 16.835 13.647 30.482 30.481 30.482zm91.443-20.321h-91.443c-5.611 0-10.16-4.549-10.16-10.16V274.329h101.603zm-91.443-243.848h223.527v111.764H156.611l43.618-43.618c3.85-3.987 3.795-10.324-.124-14.243s-10.256-3.974-14.243-.124l-43.618 43.618v-87.237c.001-5.611 4.55-10.16 10.161-10.16zm386.093 304.81h-91.443l-206.58.061a10.037 10.037 0 00-4.003.823l-96.696 41.363a20.321 20.321 0 000 37.36l49.298 21.134.122.051 45.396 19.457a20.309 20.309 0 007.956 1.626l255.309-.03h40.641c16.834 0 30.481-13.647 30.481-30.481v-60.881c0-16.836-13.647-30.483-30.481-30.483zm-50.802 60.962v40.591h-30.481v-81.232h30.481zm-50.801-10.16H254.008v-30.4l182.886-.081v30.481zm-203.207 47.001l-30.481-13.066v-47.51l30.481-13.026zm20.32-26.681h182.886v30.42l-182.886.061zm-71.122-25.197v30.105l-35.145-15.068zm355.612 55.587h-30.481v-81.191h30.481c5.611 0 10.16 4.549 10.16 10.16v60.871c0 5.611-4.549 10.16-10.16 10.16z"/></svg>