<svg height="512" viewBox="0 0 609.646 609.646" width="512" xmlns="http://www.w3.org/2000/svg"><path d="M254.063 507.961a252.37 252.37 0 00129.219-35.449l28.906 28.825c8.805 8.791 23.052 8.836 31.914.102l96.147 96.147a40.57 40.57 0 0057.507.061c15.852-15.868 15.852-41.578 0-57.447l-96.208-96.249c8.739-8.856 8.694-23.104-.102-31.903l-28.825-28.906c58.562-99.175 43.044-225.343-37.804-307.372S228.04-23.604 128.026 33.514-21.035 207.907 8.535 319.221s130.354 188.787 245.528 188.74zm329.266 75.38c-8.028 7.652-20.657 7.625-28.652-.061l-96.198-96.198 28.713-28.713 96.198 96.198a20.321 20.321 0 01-.061 28.774zM487.07 426.455c.44.434.686 1.028.681 1.646a2.326 2.326 0 01-.691 1.666l-57.223 57.203a2.033 2.033 0 01-3.322 0l-25.828-25.746a256.22 256.22 0 0060.647-60.637zM254.063 20.265c129.062 0 233.688 104.626 233.688 233.688S383.125 487.641 254.063 487.641 20.375 383.015 20.375 253.953c.146-129.002 104.686-233.542 233.688-233.688z"/><path d="M254.063 467.32c117.839 0 213.367-95.528 213.367-213.367S371.902 40.586 254.063 40.586 40.696 136.114 40.696 253.953c.134 117.784 95.583 213.233 213.367 213.367zm0-406.413c106.617 0 193.046 86.43 193.046 193.046s-86.43 193.046-193.046 193.046S61.016 360.57 61.016 253.953c.118-106.568 86.479-192.929 193.047-193.046z"/><path d="M416.628 324.974v-40.641a19.623 19.623 0 00-4.064-12.091l-45.722-60.962a20.47 20.47 0 00-16.257-8.128h-21.469l15.86-47.591a10.159 10.159 0 00-12.091-13.066l-30.308 7.569-8.077-40.387a10.16 10.16 0 00-18.665-3.241l-21.774 36.323-21.774-36.283a10.162 10.162 0 00-18.665 3.241l-8.077 40.347-30.308-7.569a10.16 10.16 0 00-12.091 13.066l15.86 47.591H165.16a20.224 20.224 0 00-15.241 6.919l-53.443 61.084a20.325 20.325 0 00-4.979 13.28v40.641c0 11.223 9.098 20.321 20.321 20.321h284.489c11.247-.04 20.338-9.177 20.321-20.423zm-304.81-20.219h284.489v20.321H111.818zm53.342-81.283h20.625l7.844 23.531a10.174 10.174 0 0017.259 3.543 10.172 10.172 0 002.046-9.964l-24.629-73.886 22.698 5.669a10.159 10.159 0 0012.375-7.823l5.019-25.035 16.958 28.276a10.555 10.555 0 0017.414 0l16.958-28.276 5.019 25.035a10.162 10.162 0 0012.416 7.864l22.698-5.669-24.629 73.886a10.171 10.171 0 1019.305 6.421l7.803-23.572h28.246l45.722 60.962H111.818z"/><path clip-rule="evenodd" d="M254.063 203.151c-5.611 0-10.16 4.549-10.16 10.16v30.481c0 5.611 4.549 10.16 10.16 10.16s10.16-4.549 10.16-10.16v-30.481c0-5.611-4.549-10.16-10.16-10.16z" fill-rule="evenodd"/></svg>