<svg height="512" viewBox="0 0 609.62 609.62" width="512" xmlns="http://www.w3.org/2000/svg"><path d="M50.802 609.62h508.017c28.043-.034 50.768-22.759 50.802-50.802V101.603c-.034-28.043-22.759-50.768-50.802-50.802h-20.321v-15.24C538.498 15.921 522.577 0 502.937 0s-35.561 15.921-35.561 35.561v15.241h-60.962V35.561C406.414 15.921 390.492 0 370.852 0s-35.561 15.921-35.561 35.561v15.241h-60.962V35.561C274.329 15.921 258.408 0 238.768 0s-35.561 15.921-35.561 35.561v15.241h-60.962V35.561C142.245 15.921 126.323 0 106.684 0S71.122 15.921 71.122 35.561v15.241h-20.32C22.759 50.835.034 73.56 0 101.603v457.215c.034 28.044 22.759 50.769 50.802 50.802zM589.3 558.819c0 16.834-13.647 30.481-30.481 30.481H50.802c-16.834 0-30.481-13.647-30.481-30.481V162.565H589.3zM487.696 35.561c0-8.417 6.823-15.241 15.241-15.241s15.241 6.823 15.241 15.241v50.802c0 8.417-6.823 15.241-15.241 15.241s-15.241-6.823-15.241-15.241zm-132.084 0c0-8.417 6.823-15.241 15.241-15.241s15.241 6.823 15.241 15.241v50.802c0 8.417-6.823 15.241-15.241 15.241s-15.241-6.823-15.241-15.241zm-132.085 0c0-8.417 6.823-15.241 15.241-15.241 8.417 0 15.241 6.823 15.241 15.241v50.802c0 8.417-6.823 15.241-15.241 15.241-8.417 0-15.241-6.823-15.241-15.241zm-132.084 0c0-8.417 6.823-15.241 15.241-15.241s15.241 6.823 15.241 15.241v50.802c0 8.417-6.823 15.241-15.241 15.241S91.443 94.78 91.443 86.363zm-71.122 66.042c0-16.834 13.647-30.481 30.481-30.481h20.321v15.241c0 19.64 15.921 35.561 35.561 35.561s35.561-15.921 35.561-35.561V71.122h60.962v15.241c0 19.64 15.921 35.561 35.561 35.561s35.561-15.921 35.561-35.561V71.122h60.962v15.241c0 19.64 15.921 35.561 35.561 35.561s35.561-15.921 35.561-35.561V71.122h60.962v15.241c0 19.64 15.921 35.561 35.561 35.561s35.561-15.921 35.561-35.561V71.122h20.321c16.834 0 30.481 13.647 30.481 30.481v40.641H20.321z"/><path d="M59.052 378.981a20.319 20.319 0 0014.011 7.112h1.422c2.317 0 4.617-.403 6.797-1.189v123.113a30.481 30.481 0 0030.481 30.481H335.29a30.345 30.345 0 0013.595-3.383c49.229 44.282 123.638 45.271 174.027 2.313s61.182-116.588 25.245-172.202-107.5-76.024-167.368-47.735l-15.017-13.432v-70.37c0-11.223-9.098-20.321-20.321-20.321H314.97c-11.223 0-20.321 9.098-20.321 20.321v6.777l-57.64-51.543c-7.676-6.869-19.289-6.869-26.966 0L47.479 334.356c-8.27 7.566-9.077 20.316-1.829 28.866zm42.551 129.036V368.749l121.924-109.132 108.563 97.214c-36.709 47.634-36.337 114.126.904 161.346h-58.666v-81.283c0-16.834-13.647-30.481-30.481-30.481h-40.641c-16.834 0-30.481 13.647-30.481 30.481v81.283h-60.962c-5.611 0-10.16-4.549-10.16-10.16zm91.443 10.16v-81.283c0-5.611 4.549-10.16 10.16-10.16h40.641c5.611 0 10.16 4.549 10.16 10.16v81.283zm355.612-81.282c0 61.725-50.038 111.764-111.764 111.764S325.131 498.62 325.131 436.895s50.038-111.764 111.764-111.764c61.695.073 111.69 50.068 111.763 111.764zM314.97 233.688h30.481v52.204l-30.481-27.25zm-91.504-29.618l124.891 111.682.254.224 13.554 12.121a133.494 133.494 0 00-16.561 13.564l-115.3-103.249a10.16 10.16 0 00-13.554 0L74.485 365.772l-13.462-16.257z"/><path d="M386.093 467.376h20.321v20.321c0 16.834 13.647 30.481 30.481 30.481s30.481-13.647 30.481-30.481v-20.321h20.321c16.834 0 30.481-13.647 30.481-30.481s-13.647-30.481-30.481-30.481h-20.321v-20.321c0-16.834-13.647-30.481-30.481-30.481s-30.481 13.647-30.481 30.481v20.321h-20.321c-16.834 0-30.481 13.647-30.481 30.481s13.647 30.481 30.481 30.481zm0-40.642h30.481c5.611 0 10.16-4.549 10.16-10.16v-30.481c0-5.611 4.549-10.16 10.16-10.16s10.16 4.549 10.16 10.16v30.481c0 5.611 4.549 10.16 10.16 10.16h30.481c5.611 0 10.16 4.549 10.16 10.16s-4.549 10.16-10.16 10.16h-30.481c-5.611 0-10.16 4.549-10.16 10.16v30.481c0 5.611-4.549 10.16-10.16 10.16s-10.16-4.549-10.16-10.16v-30.481c0-5.611-4.549-10.16-10.16-10.16h-30.481c-5.611 0-10.16-4.549-10.16-10.16-.001-5.611 4.548-10.16 10.16-10.16z"/></svg>