<svg height="512" viewBox="0 0 61 61" width="512" xmlns="http://www.w3.org/2000/svg"><g fill-rule="evenodd"><g fill-rule="nonzero"><path d="M3 47h25.292A16.017 16.017 0 1038 29.178V3a3 3 0 00-3-3H8c-.26.013-.507.115-.7.29l-7 7A1.09 1.09 0 000 8v36a3 3 0 003 3zm41-17c7.732 0 14 6.268 14 14s-6.268 14-14 14-14-6.268-14-14c.008-7.729 6.271-13.992 14-14zM7 3.414V6a1 1 0 01-1 1H3.414zM2 9h4a3 3 0 003-3V2h26a1 1 0 011 1v27.165A16.1 16.1 0 0032.411 33H21a1 1 0 000 2h9.782a15.84 15.84 0 00-1.147 2H21a1 1 0 000 2h7.811A15.88 15.88 0 0028 44c0 .338.03.668.051 1H3a1 1 0 01-1-1z"/><path d="M7.74 18.271a2 2 0 001.26.7V28a3 3 0 003 3h14a3 3 0 003-3v-9.03a2 2 0 001.26-.7l1.282-1.548a1.994 1.994 0 00-.284-2.823L29 12.075V7a2 2 0 00-2-2h-2a2 2 0 00-2 2v.224l-2.731-2.208a2.033 2.033 0 00-2.539 0L6.742 13.9a1.994 1.994 0 00-.284 2.823zM21 29h-4v-5a1 1 0 011-1h2a1 1 0 011 1zm6-1a1 1 0 01-1 1h-3v-5a3 3 0 00-3-3h-2a3 3 0 00-3 3v5h-3a1 1 0 01-1-1v-9.8l8-6.345 8 6.345zM25 7h2v3.458l-2-1.617zm-5.988-.429L30 15.448 28.719 17a.027.027 0 01-.022 0c-.006-.006-.015-.009-.022-.015L19.621 9.8a1 1 0 00-1.242 0L9.281 17 8 15.456zM33 46c-.002.796.315 1.56.879 2.121l4 4a3 3 0 004.148.09l12-11A3 3 0 0052.132 36a2.971 2.971 0 00-2.159.787l-9.882 9.059-1.97-1.969a3.072 3.072 0 00-4.242 0A2.986 2.986 0 0033 46zm2.293-.707a1 1 0 011.414 0l2.647 2.646a1 1 0 001.382.03l10.588-9.706a1 1 0 011.352 1.474l-12 11c-.4.349-.999.335-1.382-.031l-4-4a1 1 0 010-1.414z"/></g><path d="M5 35h12a1 1 0 000-2H5a1 1 0 000 2zm0 4h12a1 1 0 000-2H5a1 1 0 000 2zm0 4h12a1 1 0 000-2H5a1 1 0 000 2z"/></g></svg>