<svg height="512" viewBox="0 0 601.357 601.357" width="512" xmlns="http://www.w3.org/2000/svg"><path d="M557.662 171.423l-57.104 18.129v-9.664a19.772 19.772 0 00-2.778-9.994 19.772 19.772 0 002.778-9.994V99.938c0-11.039-8.949-19.988-19.988-19.988H340.657c-3.519.02-6.969.979-9.994 2.778a19.772 19.772 0 00-9.994-2.778h-59.963V19.988C260.707 8.949 251.758 0 240.719 0H100.806c-3.519.02-6.969.979-9.994 2.778A19.765 19.765 0 0080.819 0H20.856C9.817 0 .869 8.949.869 19.988V79.95c.02 3.519.979 6.969 2.778 9.994a19.772 19.772 0 00-2.778 9.994V159.9c.02 3.519.979 6.969 2.778 9.994a19.772 19.772 0 00-2.778 9.994v59.963c.02 3.519.979 6.969 2.778 9.994a19.772 19.772 0 00-2.778 9.994v59.963c0 11.039 8.949 19.988 19.988 19.988H160.77a19.772 19.772 0 009.994-2.778 19.772 19.772 0 009.994 2.778h104.585a329.17 329.17 0 0038.116 60.702l-20.987 20.987a19.988 19.988 0 00-20.787 4.647L180.747 527.062c-15.606 15.61-15.606 40.915 0 56.525l6.066 6.066c15.61 15.606 40.915 15.606 56.525 0l100.937-100.937a19.986 19.986 0 004.647-20.787l20.987-20.987a341.162 341.162 0 00102.556 55.266 32.793 32.793 0 0041.394-21.336l85.147-268.183a32.979 32.979 0 00-41.324-41.254zm-137.055 43.513v-35.048h59.963v15.99zm-239.85 24.915h-79.95v-59.963H240.72v59.963zM20.856 179.888h59.963v59.963H20.856zm0-79.95h139.913V159.9H20.856zm321.26 139.913h-80.89c-.18 0-.33-.1-.52-.1v-59.863H400.62v41.394zM480.57 99.938V159.9H340.657V99.938zm-159.901 0V159.9H180.757V99.938zm-79.95-79.95V79.95H100.806V19.988zm-219.863 0h59.963V79.95H20.856zm0 299.813v-59.963h139.913v59.963zm159.901 0v-59.963h101.717c-13.096 7.791-19.03 23.627-14.281 38.106a346.27 346.27 0 008.115 21.856h-95.551zm229.107 22.556c3.903-3.901 10.229-3.901 14.131 0l3.997 3.998c3.901 3.903 3.901 10.229 0 14.131l-91.863 91.873-18.179-18.179zM229.156 575.561c-7.907 7.553-20.356 7.553-28.262 0l-6.066-6.066c-7.803-7.805-7.803-20.457 0-28.262l100.937-100.937 34.319 34.319zm350.782-368.88l-85.157 268.153a12.78 12.78 0 01-6.426 7.585 12.485 12.485 0 01-9.664.79 320.792 320.792 0 01-94.581-50.479l58.054-58.054c11.704-11.708 11.704-30.686 0-42.394l-3.998-3.998c-11.708-11.704-30.686-11.704-42.394 0l-58.114 57.994a321.023 321.023 0 01-50.499-94.581 12.428 12.428 0 01.79-9.664 12.81 12.81 0 017.605-6.436l198.756-63.091h.16l69.167-21.986a12.991 12.991 0 0116.25 16.18z"/></svg>