<svg height="512" viewBox="0 0 609.62 609.62" width="512" xmlns="http://www.w3.org/2000/svg"><path d="M589.3 482.616h-50.802v-50.802c0-11.223-9.098-20.321-20.321-20.321h-50.802V246.154a202.44 202.44 0 004.267-2.235 30.421 30.421 0 0015.85-26.661l.203-69.934c0-16.834-13.647-30.481-30.481-30.481h-81.283v-40.64c0-22.446-18.196-40.641-40.641-40.641H152.405c-22.446 0-40.641 18.196-40.641 40.641v40.641H30.481C13.647 116.844 0 130.491 0 147.325l.203 69.903a30.482 30.482 0 0015.891 26.722c1.26.681 2.682 1.422 4.227 2.205v226.301c0 16.834 13.647 30.481 30.481 30.481h111.764v50.802c0 11.223 9.098 20.321 20.321 20.321H304.81a20.084 20.084 0 0010.16-2.825 20.107 20.107 0 0010.16 2.825h121.924a20.084 20.084 0 0010.16-2.825 20.104 20.104 0 0010.16 2.825H589.3c11.223 0 20.321-9.098 20.321-20.321v-50.802c-.001-11.223-9.099-20.321-20.321-20.321zm-71.123-50.802v50.802H396.253v-50.802zM304.81 482.616h-50.802v-50.802h121.924v50.802zm91.443-71.122h-71.122v-50.802h121.924v50.802zM132.084 76.203c0-11.223 9.098-20.321 20.321-20.321h182.886c11.223 0 20.321 9.098 20.321 20.321v40.641h-20.321V86.363c0-5.611-4.549-10.16-10.16-10.16H162.565c-5.611 0-10.16 4.549-10.16 10.16v30.481h-20.321zm182.886 40.641H172.726V96.523H314.97zM30.481 137.165h426.734c5.611 0 10.16 4.549 10.16 10.16l-.203 69.934a10.077 10.077 0 01-5.243 8.839 205.646 205.646 0 01-8.535 4.328l-.356.173c-24.497 11.674-76.152 30.918-158.39 36.811v-8.321c0-11.223-9.098-20.321-20.321-20.321h-60.962c-11.223 0-20.321 9.098-20.321 20.321v8.321c-82.299-5.893-133.913-25.137-158.379-36.831-.132-.061-.244-.132-.376-.183-3.312-1.595-6.177-3.048-8.484-4.308a10.159 10.159 0 01-5.283-8.89l-.203-69.873c.002-5.611 4.551-10.16 10.162-10.16zM274.329 299.73h-60.962v-40.641h60.962zm-50.802 20.321h40.641v20.321c0 5.611-4.549 10.16-10.16 10.16h-20.321c-5.611 0-10.16-4.549-10.16-10.16zM50.802 482.616c-5.611 0-10.16-4.549-10.16-10.16V255.39a495.147 495.147 0 00152.405 32.381v11.959a20.25 20.25 0 0010.16 17.496v23.145c0 16.834 13.647 30.481 30.481 30.481h20.321c16.834 0 30.481-13.647 30.481-30.481v-23.145a20.249 20.249 0 0010.16-17.496v-11.959a495.082 495.082 0 00152.405-32.381v84.981H325.131c-11.223 0-20.321 9.098-20.321 20.321v50.802h-50.802c-11.223 0-20.321 9.098-20.321 20.321v50.802H50.802zm132.084 71.122v-50.802H304.81v50.802zm142.245 0v-50.802h121.924v50.802zm142.245 0v-50.802H589.3v50.802z"/><path clip-rule="evenodd" d="M101.603 441.975h-20.32v-20.321c0-5.611-4.549-10.16-10.16-10.16s-10.16 4.549-10.16 10.16v30.481c0 5.611 4.549 10.16 10.16 10.16h30.481c5.611 0 10.16-4.549 10.16-10.16s-4.549-10.16-10.161-10.16z" fill-rule="evenodd"/></svg>