<svg height="654.222" viewBox="0 0 490.667 490.667" width="654.222" xmlns="http://www.w3.org/2000/svg"><path d="M437.332 490.668H202.668c-29.422 0-53.336-23.938-53.336-53.336v-128c0-5.887 4.781-10.664 10.668-10.664s10.668 4.777 10.668 10.664v128c0 17.645 14.355 32 32 32h234.664c17.645 0 32-14.355 32-32v-384c0-17.64-14.355-32-32-32H202.668c-17.645 0-32 14.36-32 32v128c0 5.89-4.781 10.668-10.668 10.668s-10.668-4.777-10.668-10.668v-128C149.332 23.938 173.246 0 202.668 0h234.664c29.422 0 53.336 23.938 53.336 53.332v384c0 29.398-23.914 53.336-53.336 53.336zm0 0"/><path d="M352 256H10.668C4.778 256 0 251.223 0 245.332c0-5.887 4.777-10.664 10.668-10.664H352c5.887 0 10.668 4.777 10.668 10.664 0 5.89-4.781 10.668-10.668 10.668zm0 0"/><path d="M288 320c-2.73 0-5.46-1.047-7.55-3.113-4.16-4.16-4.16-10.926 0-15.086l56.468-56.469-56.45-56.445c-4.16-4.16-4.16-10.926 0-15.086 4.16-4.156 10.923-4.156 15.083 0l64 64c4.16 4.16 4.16 10.926 0 15.086l-64 64A10.721 10.721 0 01288 320zm0 0"/></svg>