<svg viewBox="0 0 1537 237" fill="none" xmlns="http://www.w3.org/2000/svg" fill-rule="evenodd" clip-rule="evenodd" stroke-linejoin="round" stroke-miterlimit="2"><path d="M1529.501 55.85c-.204 7.722-2.917 10.938-10.638 11.863-14.104 1.696-28.245 3.013-42.058 4.454-13.433-1.354-26.417-2.583-39.375-4.004-7.158-.787-10.412-4.096-10.746-11.379-.337-7.387-.296-14.812-.012-22.208.25-6.442 4.441-10.846 10.791-11.967 27.15-4.804 54.3-4.325 81.421.196 6.867 1.146 10.454 5.475 10.625 12.587a398.68 398.68 0 01-.008 20.459zm-9.85-39.837c-27.704-4.762-55.454-5.225-83.192-.158-9.266 1.687-15.525 7.304-16.383 16.558-.825 8.871-.838 17.971.137 26.821 1.084 9.758 6.059 14.55 14.705 15.596 13.912 1.683 27.887 2.92 42.191 4.383 14.7-1.591 29.609-3.183 44.513-4.82 7.787-.855 12.841-5.309 13.746-12.888 1.012-8.458 1.012-17.067 1.02-25.608.009-10.934-5.937-18.03-16.737-19.884zM333.096 0h4.825v236.676h-4.825zm263.117 48.517L536.02 162.484 475.838 48.51h-27.709v132.83h15.63V64.14h2.658l61.892 117.2h15.437l61.888-117.2h2.654v117.2h15.625V48.508h-27.7v.008zm82.904 88.543l33.454-72.922h14.342l33.458 72.921h-81.254zm23.43-88.55l-60.938 132.828h17.195l13.142-28.65h95.596l13.138 28.65h17.2L736.938 48.51h-34.392z" fill-rule="nonzero"/><path d="M956.171 165.71h-5.216L843.234 48.51h-27.709v132.828h15.63v-117.2h4.441l108.5 117.2h27.705V48.51h-15.63v117.2z" style="ffill-rule:nonzero"/><path d="M1015.276 70.08a7.519 7.519 0 017.162-7.142c18.792-.862 36.038-1.3 54.833-1.3 18.788 0 36.034.438 54.834 1.3a7.523 7.523 0 017.162 7.142c.188 3.842.359 7.692.5 11.55h15.634c-.15-4.113-.325-8.22-.53-12.33-.6-11.908-10.15-21.424-22.058-21.974-19.125-.875-36.425-1.313-55.55-1.313-19.12 0-36.425.438-55.546 1.313-11.912.55-21.462 10.066-22.054 21.975a810.662 810.662 0 00-.533 12.329l.033 19.13c.596 11.907 10.146 21.424 22.054 21.97h111.413a7.486 7.486 0 014.954 2.183 7.526 7.526 0 012.208 4.959l-.033 18.346a960.89 960.89 0 01-.5 11.545 7.539 7.539 0 01-2.212 4.959 7.466 7.466 0 01-4.955 2.183c-18.796.863-36.041 1.304-54.833 1.304-18.796 0-36.042-.441-54.83-1.304a7.46 7.46 0 01-4.958-2.183 7.515 7.515 0 01-2.208-4.959 881.674 881.674 0 01-.5-11.545h-15.637c.15 4.108.329 8.216.533 12.329.596 11.908 10.146 21.42 22.058 21.97 19.121.876 36.425 1.317 55.546 1.317 19.125 0 36.43-.441 55.55-1.316 11.909-.546 21.459-10.063 22.059-21.971.204-4.113.379-8.221.529-12.33l-.017-19.129c-.6-11.908-10.15-21.425-22.054-21.97h-111.417a7.49 7.49 0 01-4.954-2.188 7.51 7.51 0 01-2.204-4.954l.016-18.346c.146-3.858.313-7.708.505-11.55zm167.45-21.57h15.629v132.828h-15.63zm188.996 111.2a7.526 7.526 0 01-2.209 4.958 7.476 7.476 0 01-4.958 2.183 1241.428 1241.428 0 01-56.65 1.304c-18.792 0-37.85-.442-56.646-1.304a7.475 7.475 0 01-4.954-2.183 7.526 7.526 0 01-2.208-4.959 898.314 898.314 0 01.004-89.575 7.516 7.516 0 017.163-7.142c18.791-.862 37.85-1.3 56.641-1.3 18.796 0 37.854.438 56.65 1.3 1.87.088 3.63.863 4.954 2.184a7.52 7.52 0 012.213 4.958 899.57 899.57 0 010 89.575zm-6.454-112.33a1254.383 1254.383 0 00-114.721 0c-11.913.546-21.463 10.067-22.059 21.97a910.906 910.906 0 000 91.143c.596 11.904 10.146 21.425 22.059 21.97 19.116.875 38.237 1.317 57.358 1.317 19.12 0 38.246-.442 57.367-1.317 11.908-.545 21.458-10.066 22.054-21.97a908.42 908.42 0 000-91.142c-.596-11.904-10.146-21.425-22.058-21.971zm82.295-12.817c.284-.283.659-.45 1.059-.466a265.342 265.342 0 0124.15 0c.396.016.77.183 1.054.466.287.284.454.659.475 1.059.037.82.075 1.641.104 2.466h3.333c-.033-.879-.07-1.758-.112-2.633a4.941 4.941 0 00-4.7-4.688c-4.08-.183-8.154-.279-12.23-.279-4.074 0-8.153.096-12.228.28a4.935 4.935 0 00-4.7 4.687c-.33 6.475-.33 12.954 0 19.425a4.932 4.932 0 004.7 4.687 265.4 265.4 0 0012.229.28c4.075 0 8.15-.092 12.229-.28a4.945 4.945 0 004.704-4.687c.038-.875.075-1.75.108-2.625v-4.017a4.935 4.935 0 00-4.7-4.683h-18.275v3.35l18.121-.025a1.61 1.61 0 011.53 1.525l-.009 3.85c-.029.82-.067 1.642-.104 2.462-.02.396-.188.771-.475 1.055-.283.283-.658.45-1.054.466a265.342 265.342 0 01-24.15 0 1.587 1.587 0 01-1.059-.466 1.594 1.594 0 01-.475-1.055 192.04 192.04 0 010-19.095c.021-.4.188-.775.475-1.059zm39.317 10.604V34.338h23.042a1.606 1.606 0 011.52 1.525v7.83a1.59 1.59 0 01-.47 1.058c-.284.283-.659.45-1.054.466l-23.038-.05zm23.192 3.375a4.934 4.934 0 004.7-4.683v-8.146a4.945 4.945 0 00-4.688-4.704h-26.533v28.317h3.33V48.542h8.216l15.854 10.784 5.912-.004-15.841-10.78h9.05zM168.05 0l-48.53 86.41c-.637 1.137-2.278 1.137-2.916 0L68.071 0H0v236.676l57.646-84.833a1.678 1.678 0 012.77 0l57.646 84.833 57.646-84.833a1.674 1.674 0 012.767 0l57.646 84.833V0H168.05z" fill-rule="nonzero"/></svg>