<svg height="512" viewBox="0 0 609.62 609.62" width="512" xmlns="http://www.w3.org/2000/svg"><path d="M314.944 345.451h-20.321c-5.611 0-10.16 4.549-10.16 10.16s4.549 10.16 10.16 10.16h20.321c5.611 0 10.16-4.549 10.16-10.16s-4.548-10.16-10.16-10.16zm-60.962-121.924c-5.611 0-10.16 4.549-10.16 10.16v10.16c0 5.611 4.549 10.16 10.16 10.16s10.16-4.549 10.16-10.16v-10.16c0-5.611-4.548-10.16-10.16-10.16zm101.604 30.481c5.611 0 10.16-4.549 10.16-10.16v-10.16c0-5.611-4.549-10.16-10.16-10.16s-10.16 4.549-10.16 10.16v10.16c-.001 5.612 4.548 10.16 10.16 10.16zm-60.962 40.642h20.321c5.611 0 10.16-4.549 10.16-10.16s-4.549-10.16-10.16-10.16h-20.321c-5.611 0-10.16 4.549-10.16 10.16-.001 5.611 4.548 10.16 10.16 10.16z" clip-rule="evenodd" fill-rule="evenodd"/><path d="M391.502 427.638c-8.697-10.272-13.889-28.723-15.149-53.85l33.001-28.886a50.801 50.801 0 0017.354-38.213v-13.056a50.62 50.62 0 0017.812-91.941 20.32 20.32 0 0012.67-18.807v-20.321a20.25 20.25 0 00-10.475-17.669C443.771 84.632 402.9 32.881 344.959 16.052A20.325 20.325 0 00325.104 0h-40.641a20.32 20.32 0 00-19.853 16.053c-57.941 16.829-98.812 68.58-101.756 128.843a20.25 20.25 0 00-10.475 17.669v20.321a20.322 20.322 0 0012.67 18.797 50.617 50.617 0 00-21.925 51.948 50.62 50.62 0 0039.737 40.004V306.7a50.8 50.8 0 0017.354 38.233l33.001 28.886c-1.26 25.106-6.452 43.557-15.149 53.85-12.893 2.855-58.402 14.611-85.347 42.887-25.401 26.651-39.046 78.235-41.251 117.545a20.322 20.322 0 0020.27 21.52H497.83a20.325 20.325 0 0020.321-21.55c-2.205-39.31-15.81-90.894-41.241-117.545-27.006-28.277-72.555-40.033-85.408-42.888zm2.459 37.787l-38.376 38.355-27.748-27.748a108.849 108.849 0 0057.05-23.369zm-74.292 52.752h-29.77l-8.616-12.934 23.501-23.501 23.501 23.511zm-65.687-14.397l-38.365-38.335 9.144-12.761a108.857 108.857 0 0057.02 23.369zm-50.334-21.57l35.937 35.968c7.291 7.24 18.838 7.898 26.905 1.534l7.529 11.298-5.324 58.249h-47.357l-36.913-80.084zm90.081 56.288h22.109l4.633 50.802h-31.375zm41.82-7.509l7.529-11.298c8.041 6.435 19.637 5.782 26.905-1.514l35.957-35.957 19.305 26.955-37.024 80.125h-47.347zm-162.85-348.103v-20.321h264.169v20.321zm50.802-121.518v50.395c0 5.611 4.549 10.16 10.16 10.16s10.16-4.549 10.16-10.16V46.809a120.816 120.816 0 0120.321-9.317v53.951c0 5.611 4.549 10.16 10.16 10.16s10.16-4.549 10.16-10.16V20.321h40.641v71.122c0 5.611 4.549 10.16 10.16 10.16s10.16-4.549 10.16-10.16V37.492a120.852 120.852 0 0120.321 9.317v64.955c0 5.611 4.549 10.16 10.16 10.16s10.16-4.549 10.16-10.16V61.368a121.388 121.388 0 0140.215 80.876H183.287a121.387 121.387 0 0140.214-80.876zM203.18 306.69v-22.2c0-5.611-4.549-10.16-10.16-10.16-14.842.124-27.59-10.522-30.112-25.149s5.924-28.928 19.951-33.781v18.289c0 5.611 4.549 10.16 10.16 10.16s10.16-4.549 10.16-10.16v-30.481h203.207v30.481c0 5.611 4.549 10.16 10.16 10.16s10.16-4.549 10.16-10.16V215.4c14.027 4.853 22.473 19.154 19.951 33.781s-15.269 25.274-30.112 25.149c-5.611 0-10.16 4.549-10.16 10.16v22.2a30.481 30.481 0 01-10.414 22.932l-55.882 48.932a30.53 30.53 0 01-20.067 7.539h-30.481a30.484 30.484 0 01-20.067-7.539l-55.882-48.932a30.492 30.492 0 01-10.412-22.932zm52.946 87.165a50.798 50.798 0 0033.417 12.558h30.481a50.863 50.863 0 0033.458-12.558l3.881-3.404a103.243 103.243 0 0015.291 46.097c-8.585 7.641-28.886 20.666-67.871 20.666s-59.336-13.056-67.851-20.656a103.27 103.27 0 0015.301-46.118zM111.737 589.198c1.92-34.423 13.91-81.852 35.663-104.652a133.91 133.91 0 0151.046-30.024l-30.481 42.765a20.32 20.32 0 00-2.032 20.321l33.031 71.559zm298.857.102l33.082-71.661a20.32 20.32 0 00-2.032-20.321l-30.583-42.846a133.913 133.913 0 0151.076 30.054c21.784 22.82 33.773 70.228 35.693 104.773h-87.236z"/><path clip-rule="evenodd" d="M280.257 331.227a62.861 62.861 0 0024.527 4.298 62.993 62.993 0 0024.517-4.277 10.167 10.167 0 00-8.392-18.523 53.777 53.777 0 01-32.239 0c-5.109-2.323-11.134-.065-13.457 5.045-2.324 5.109-.065 11.134 5.044 13.457z" fill-rule="evenodd"/></svg>