<svg height="512" viewBox="0 0 609.62 609.62" width="512" xmlns="http://www.w3.org/2000/svg"><path d="M558.819 5.08h-304.81c-28.043.034-50.768 22.759-50.802 50.802v162.565H50.802C22.759 218.481.034 241.206 0 269.249v223.527c.03 23.375 15.979 43.725 38.67 49.339l-7.387 36.445a20.32 20.32 0 0019.518 25.98 21.08 21.08 0 0010.557-2.886l93.932-58.076h200.321c28.043-.034 50.768-22.759 50.802-50.802V330.211h47.916l94.237 58.188a20.32 20.32 0 0022.769-1.615 19.842 19.842 0 007.183-20.798l-7.569-37.248c22.694-5.603 38.647-25.953 38.67-49.328V55.882c-.032-28.043-22.757-50.768-50.8-50.802zM386.093 492.776c0 16.834-13.647 30.481-30.481 30.481H152.405c-1.884 0-3.731.524-5.334 1.514l-96.066 58.646 9.744-47.957a10.16 10.16 0 00-9.947-12.203c-16.834 0-30.481-13.647-30.481-30.481V269.249c0-16.834 13.647-30.481 30.481-30.481h304.81c16.834 0 30.481 13.647 30.481 30.481zM589.3 279.409c0 16.834-13.647 30.481-30.481 30.481a10.16 10.16 0 00-9.947 12.193l10.11 48.881-96.432-59.55a10.156 10.156 0 00-5.334-1.524h-50.802v-40.641c-.034-28.043-22.759-50.768-50.802-50.802H223.527V55.882c0-16.834 13.647-30.481 30.481-30.481h304.81c16.834 0 30.481 13.647 30.481 30.481v223.527z"/><path d="M406.414 127.004c-16.834 0-30.481 13.647-30.481 30.481s13.647 30.481 30.481 30.481 30.481-13.647 30.481-30.481-13.647-30.481-30.481-30.481zm0 40.642c-5.611 0-10.16-4.549-10.16-10.16s4.549-10.16 10.16-10.16 10.16 4.549 10.16 10.16-4.549 10.16-10.16 10.16zM304.81 127.004c-16.834 0-30.481 13.647-30.481 30.481s13.647 30.481 30.481 30.481 30.481-13.647 30.481-30.481-13.647-30.481-30.481-30.481zm0 40.642c-5.611 0-10.16-4.549-10.16-10.16s4.549-10.16 10.16-10.16 10.16 4.549 10.16 10.16-4.548 10.16-10.16 10.16zm203.207-40.642c-16.834 0-30.481 13.647-30.481 30.481s13.647 30.481 30.481 30.481 30.481-13.647 30.481-30.481-13.647-30.481-30.481-30.481zm0 40.642c-5.611 0-10.16-4.549-10.16-10.16s4.549-10.16 10.16-10.16 10.16 4.549 10.16 10.16-4.549 10.16-10.16 10.16zM345.451 391.173H314.97v-30.481c0-11.223-9.098-20.321-20.321-20.321h-30.481V309.89c0-11.223-9.098-20.321-20.321-20.321h-81.283c-11.223 0-20.321 9.098-20.321 20.321v30.481h-30.481c-11.223 0-20.321 9.098-20.321 20.321v30.481H60.962c-11.223 0-20.321 9.098-20.321 20.321v30.481c0 11.223 9.098 20.321 20.321 20.321h81.283a20.084 20.084 0 0010.16-2.825 20.107 20.107 0 0010.16 2.825h81.283a20.084 20.084 0 0010.16-2.825 20.107 20.107 0 0010.16 2.825h81.283c11.223 0 20.321-9.098 20.321-20.321v-30.481c0-11.223-9.098-20.321-20.321-20.321zm-50.801-30.481v30.481h-81.283v-30.481zM162.565 309.89h81.283v30.481h-81.283zm-50.801 50.802h81.283v30.481h-81.283zm-50.802 81.283v-30.481h81.283v30.481zm101.603 0v-30.481h81.283v30.481zm101.604 0v-30.481h81.283v30.481z"/></svg>