<svg height="512" viewBox="0 0 609.696 609.696" width="512" xmlns="http://www.w3.org/2000/svg"><path d="M274.367 345.522H375.97c16.834 0 30.481-13.647 30.481-30.481v-91.748a20.322 20.322 0 0012.802-7.112l13.026-15.728a20.257 20.257 0 00-2.886-28.682l-22.942-18.532v-51.564c0-11.223-9.098-20.321-20.321-20.321h-20.32c-11.223 0-20.321 9.098-20.321 20.321v2.276l-27.738-22.434a20.616 20.616 0 00-25.807 0L180.313 171.78a20.253 20.253 0 00-2.896 28.683l13.026 15.728a20.383 20.383 0 0012.802 7.112v91.738c0 16.834 13.647 30.481 30.481 30.481zm10.16-20.32V274.4c0-5.611 4.549-10.16 10.16-10.16h20.321c5.611 0 10.16 4.549 10.16 10.16v50.802zm81.283-223.528h20.321v35.134l-20.321-16.429zm-60.84-4.359l111.642 90.193-13.005 15.769a.215.215 0 01-.224 0l-.152-.102-92.063-73.053a10.161 10.161 0 00-12.639 0l-92.459 73.154-12.985-15.688zm-81.405 217.726V215.47l81.283-64.467 81.283 64.467v99.571c0 5.611-4.549 10.16-10.16 10.16H345.49V274.4c0-16.834-13.647-30.481-30.481-30.481h-20.321c-16.834 0-30.481 13.647-30.481 30.481v50.802h-30.481c-5.612 0-10.161-4.549-10.161-10.161z"/><path d="M603.156 513.544L482.827 401.831a20.207 20.207 0 00-13.889-5.507h-44.706c51.452-60.23 97.885-142.834 79.799-233.881C487.34 79.237 420.432 15.329 336.548 2.469a203.328 203.328 0 00-234.907 200.809c0 74.668 40.164 141.899 83.884 193.046h-43.242a20.666 20.666 0 00-13.777 5.415L6.49 513.595a20.107 20.107 0 00-6.188 13.584 9.741 9.741 0 00-.264 1.229v60.962a19.872 19.872 0 0020.321 20.321h568.979a19.876 19.876 0 0020.321-20.321v-60.962a9.116 9.116 0 00-.244-1.189 20.01 20.01 0 00-6.259-13.675zM185.667 64.558a183.24 183.24 0 01119.679-44.116c9.425.001 18.836.711 28.154 2.124 75.434 11.552 135.606 69.017 150.617 143.84C515.98 326.959 326.5 462.671 304.848 477.607c-18.715-12.904-182.886-130.134-182.886-274.329a182.774 182.774 0 0163.705-138.72zm-43.384 352.087h61.531a603.376 603.376 0 0089.553 77.696 20.086 20.086 0 0022.942 0 601.988 601.988 0 0089.645-77.696h62.994l120.39 111.764-568.979.071zM20.359 589.37v-40.641h568.979v40.641z"/></svg>