<svg height="512pt" viewBox="0 -48 512 512" width="512pt" xmlns="http://www.w3.org/2000/svg"><path d="M120.16 208.266c-48.078 0-87.191 39.113-87.191 87.191s39.113 87.191 87.191 87.191c48.074 0 87.188-39.113 87.188-87.191s-39.114-87.191-87.188-87.191zm0 15.203c33.645 0 61.961 23.203 69.817 54.445-3.766 15.024-12.426 28.625-24.551 38.45-12.75 10.327-28.824 16.015-45.262 16.015-16.441 0-32.516-5.688-45.27-16.016-12.124-9.824-20.789-23.425-24.554-38.449 7.855-31.242 36.172-54.445 69.82-54.445zm0 143.976c-33.863 0-62.32-23.504-69.96-55.05a87.387 87.387 0 0015.128 15.78c15.45 12.516 34.922 19.407 54.836 19.407 19.91 0 39.383-6.89 54.832-19.406a87.712 87.712 0 0015.121-15.778c-7.644 31.543-36.097 55.047-69.957 55.047zm0 0"/><path d="M504.188 252.852a225.242 225.242 0 00-2.055-5.059l-64.762-157c-7.98-19.344-22.355-34.59-40.105-43.727l-6.09-14.77A52.095 52.095 0 00371.94 8.81 52.135 52.135 0 00342.911 0c-28.79 0-52.212 23.422-52.212 52.21v17.528c-11.883 14.766-19.02 33.504-19.02 53.887v5.8h-31.363v-5.8c0-20.383-7.136-39.121-19.02-53.887V52.211C221.297 23.42 197.876 0 169.087 0c-10.36 0-20.399 3.047-29.04 8.816a52.092 52.092 0 00-19.226 23.48l-6.09 14.77C96.984 56.203 82.605 71.45 74.63 90.793l-16.625 40.3a7.6 7.6 0 004.129 9.927 7.593 7.593 0 009.922-4.13l16.625-40.3c10.992-26.645 36.718-43.86 65.539-43.86 39.09 0 70.894 31.801 70.894 70.895V237.02c-20.566-36.79-59.902-61.723-104.957-61.723-28.219 0-54.191 9.785-74.719 26.129l16.407-39.774c1.601-3.879-.25-8.324-4.13-9.925-3.878-1.602-8.323.25-9.925 4.128L9.867 247.79c-.594 1.367-2.215 5.414-2.289 5.672C2.684 266.539 0 280.69 0 295.457c0 66.254 53.902 120.156 120.16 120.156 66.254 0 120.156-53.902 120.156-120.156v-4.89h31.368v4.89c0 66.254 53.902 120.156 120.156 120.156 66.258 0 120.16-53.902 120.16-120.156 0-14.996-2.77-29.355-7.813-42.605zM154.217 37.527c-6.874 0-13.6.82-20.081 2.36l.738-1.793a36.915 36.915 0 0113.621-16.64 36.969 36.969 0 0120.59-6.255c20.406 0 37.012 16.606 37.012 37.012v2.754c-14.438-10.934-32.41-17.438-51.88-17.438zM342.915 15.2a36.965 36.965 0 0120.578 6.246 36.926 36.926 0 0113.633 16.649l.738 1.793a86.64 86.64 0 00-20.086-2.36c-19.465 0-37.437 6.504-51.875 17.438V52.21c0-20.406 16.602-37.012 37.012-37.012zm-56.027 108.426c0-39.094 31.8-70.895 70.894-70.895 28.82 0 54.547 17.215 65.535 43.86l43.247 104.836c-20.528-16.344-46.504-26.13-74.723-26.13-45.055 0-84.39 24.934-104.953 61.72zm-15.203 21.004v72.969h-31.368v-72.97zM120.16 400.414c-57.875 0-104.957-47.082-104.957-104.957S62.285 190.5 120.16 190.5c57.871 0 104.953 47.082 104.953 104.957S178.031 400.414 120.16 400.414zm120.156-125.05v-42.567h31.368v42.566zm151.524 125.05c-57.871 0-104.953-47.082-104.953-104.957S333.969 190.5 391.84 190.5c57.875 0 104.957 47.082 104.957 104.957S449.715 400.414 391.84 400.414zm0 0"/><path d="M450.883 241.547c-3.356 2.523-4.024 7.289-1.5 10.644 5.844 7.758 9.976 16.438 12.289 25.66-3.758 15.047-12.426 28.676-24.57 38.512-12.747 10.328-28.82 16.016-45.262 16.016-16.438 0-32.516-5.688-45.266-16.016-12.125-9.82-20.789-23.422-24.554-38.441 7.851-31.246 36.171-54.453 69.82-54.453 14.426 0 28.344 4.25 40.242 12.289a7.599 7.599 0 0010.555-2.043 7.6 7.6 0 00-2.043-10.555c-14.422-9.742-31.282-14.894-48.754-14.894-48.078 0-87.192 39.113-87.192 87.191s39.114 87.191 87.192 87.191 87.191-39.113 87.191-87.191c0-19.082-6.054-37.207-17.508-52.41-2.52-3.356-7.285-4.027-10.64-1.5zM391.84 367.445c-33.856 0-62.313-23.5-69.953-55.043a87.422 87.422 0 0015.12 15.774c15.45 12.515 34.923 19.406 54.837 19.406 19.91 0 39.383-6.89 54.832-19.406A87.382 87.382 0 00461.8 312.39c-7.64 31.55-36.098 55.054-69.961 55.054zm0 0"/></svg>