<svg version="1.1" id="Слой_1" xmlns="http://www.w3.org/2000/svg" x="0" y="0" viewBox="0 0 55 55" xml:space="preserve"><style>.st0{fill:#7a98ab}</style><path class="st0" d="M53 30.2l-24.8-22c-.3-.3-.8-.3-1.2 0L3.1 30c-.4.3-.4.9-.1 1.2.2.2.4.3.7.3.2 0 .4-.1.6-.2L27.6 10l24.2 21.5c.4.3.9.3 1.2-.1.3-.4.3-.9 0-1.2zm-15.7-18h6.2v6.6c0 .5.4.9.9.9s.9-.4.9-.9v-7.5c0-.5-.4-.9-.9-.9h-7.1c-.5 0-.9.4-.9.9s.4.9.9.9z"/><path class="st0" d="M46 28.1c-.5 0-.9.3-.9.7v22.4H10.8V28.8c0-.4-.4-.7-.9-.7s-.9.3-.9.7V52c0 .4.4.7.9.7H46c.5 0 .9-.3.9-.7V28.8c-.1-.4-.5-.7-.9-.7z"/><path class="st0" d="M22.4 45.7c.6 0 1.1-.5 1.1-1.1v-7.5c0-.6-.5-1.1-1.1-1.1h-7.5c-.6 0-1.1.5-1.1 1.1v7.5c0 .6.5 1.1 1.1 1.1h7.5zM16 38.1h5.5v5.5H16v-5.5z"/></svg>