<svg version="1.1" id="Слой_1" xmlns="http://www.w3.org/2000/svg" x="0" y="0" width="55" height="55" viewBox="0 0 55 55" xml:space="preserve"><style>.st0{fill:#7a98ab}</style><path class="st0" d="M54 25.6l-25.8-23c-.3-.3-.8-.3-1.2 0l-25.1 23c-.4.3-.4.9-.1 1.2.2.2.4.3.7.3.2 0 .4-.1.6-.2L27.6 4.4l25.2 22.5c.4.3.9.3 1.2-.1.3-.4.3-.9 0-1.2zm-16.7-19h6.2v6.6c0 .5.4.9.9.9s.9-.4.9-.9V5.7c0-.5-.4-.9-.9-.9h-7.1c-.5 0-.9.4-.9.9s.4.9.9.9z"/><path class="st0" d="M46 22.3c-.5 0-.9.4-.9.9v27.7H10.8V23.2c0-.5-.4-.9-.9-.9s-.9.4-.9.9v28.6c0 .5.4.9.9.9H46c.5 0 .9-.4.9-.9V23.2c-.1-.5-.5-.9-.9-.9z"/><path class="st0" d="M31.1 33.8c.5 0 .9-.4.9-.9v-6.4c0-.5-.4-.9-.9-.9h-6.4c-.5 0-.9.4-.9.9v6.4c0 .5.4.9.9.9h6.4zm-5.5-6.5h4.7V32h-4.7v-4.7z"/></svg>