<svg xmlns="http://www.w3.org/2000/svg" width="55" height="55" viewBox="0 0 55 55"><path d="M53.2 39.6H41.5V28.5h11.4c.4 0 .8-.3.8-.8V15.2c0-.4-.3-.8-.8-.8H41.2V3.3h12c.4 0 .8-.3.8-.8s-.3-.8-.8-.8H2.7c-.4 0-.8.3-.8.8s.3.8.8.8h11.7v11.1H2.7c-.4 0-.8.3-.8.8v12.6c0 .4.3.8.8.8h12v11.1H3c-.4 0-.8.3-.8.8V53c0 .4.3.8.8.8h50.2c.4 0 .8-.3.8-.8V40.4c0-.4-.4-.8-.8-.8zm-1.1-23.7V27H28.7V15.9h23.4zM15.9 3.3h23.4v11.1H15.9V3.3zM3.4 27V15.9h23.4V27H3.4zm12.8 1.5h23.4v11.1H16.2V28.5zm11 23.7H3.7V41.1h23.4v11.1zm25.2 0H29V41.1h23.4v11.1z" fill="#7897aa"/></svg>