<svg version="1.1" id="Слой_1" xmlns="http://www.w3.org/2000/svg" x="0" y="0" width="55" height="55" viewBox="0 0 55 55" xml:space="preserve"><style>.st0{fill:#7a98ab}</style><path class="st0" d="M52.3 1.2H2c-.4 0-.8.3-.8.8v47c0 .4.4.8.8.8h2v2.6c0 .4.4.8.8.8h44.7c.4 0 .8-.4.8-.8v-2.6h2c.4 0 .8-.4.8-.8V2c0-.5-.3-.8-.8-.8zM2.8 40.6V22.7h13.6v17.9H2.8zm13.6-19.5H2.8v-6.4h13.6v6.4zM2.8 13.2v-7h13.6v6.9H2.8zM18 14.7h14.3c.4 0 .8-.4.8-.8s-.4-.8-.8-.8H18V6.2h33.5v6.9H39.6c-.4 0-.8.4-.8.8s.4.8.8.8h11.9v25.9H18V14.7zM51.5 2.8v1.9H2.8V2.8h48.7zm-2.8 48.8H5.6v-1.8h43.1v1.8zm.8-3.3H2.8v-6.1h48.7v6.1h-2z"/><path class="st0" d="M44.3 19.4l-7.5-1.5V17c.1-.2.5-.7.7-.8.7-.5 1.1-1.3 1.1-2.2 0-1.4-1.2-2.6-2.6-2.6-1.4 0-2.6 1.2-2.6 2.6 0 .4.4.8.8.8s.8-.4.8-.8c0-.6.5-1 1-1 .6 0 1 .5 1 1 0 .3-.2.7-.5.8 0 0-1.4 1.1-1.4 2.1v.9l-7.4 1.4c-.4.1-.6.4-.6.8v2.8c0 .4.4.8.8.8h16.2c.4 0 .8-.4.8-.8V20c.1-.2-.2-.6-.6-.6zm-.9 2.7H28.8v-1.3l7.3-1.4 7.3 1.4v1.3z"/></svg>