<svg version="1.1" id="Слой_1" xmlns="http://www.w3.org/2000/svg" x="0" y="0" width="55" height="55" viewBox="0 0 55 55" xml:space="preserve"><style>.st0{fill:#7a98ab}</style><path class="st0" d="M5.6 49.1h43.2v3.3H5.6zm46-1.6v-6H2.8v6h47.6zm0-35.1V5.5H18v6.9h14.3V14H18v25.9h33.6V14H39.7v-1.6h11.9zm-9 5.9c1.4.3 2.4 1.5 2.4 2.9V23H27.2v-1.8c0-1.4 1-2.7 2.4-2.9l5.6-1.1v-.9c-.1-1.1 1.3-2.1 1.4-2.1.3-.2.4-.5.4-.8 0-.6-.5-1-1-1-.6 0-1 .5-1 1h-1.6c0-1.4 1.2-2.6 2.6-2.6s2.6 1.2 2.6 2.6c0 .9-.4 1.7-1.1 2.2-.2.1-.6.6-.7.8v.9l5.8 1zM2.8 14h13.6v6.4H2.8z"/><path class="st0" d="M29.9 19.8c-.7.1-1.1.7-1.1 1.4v.2h14.6v-.2c0-.7-.5-1.3-1.1-1.4l-6.2-1.2-6.2 1.2zM2.8 2h48.8v1.9H2.8zm0 3.5h13.6v6.9H2.8zm0 16.4h13.6v17.9H2.8z"/></svg>