<svg height="512" viewBox="0 0 609.631 609.631" width="512" xmlns="http://www.w3.org/2000/svg"><path clip-rule="evenodd" d="M304.815 293.229c-5.611 0-10.16 4.549-10.16 10.16v10.16c0 5.611 4.549 10.16 10.16 10.16s10.16-4.549 10.16-10.16v-10.16c.001-5.611-4.548-10.16-10.16-10.16zm0 50.802c-5.611 0-10.16 4.549-10.16 10.16v10.16c0 5.611 4.549 10.16 10.16 10.16s10.16-4.549 10.16-10.16v-10.16c.001-5.611-4.548-10.16-10.16-10.16z" fill-rule="evenodd"/><path d="M603.123 461.251L487.701 354.13V249.784a20.317 20.317 0 007.793-3.333l16.592-11.827c9.129-6.526 11.24-19.217 4.714-28.347l-18.939-26.458V90.023c0-11.223-9.098-20.321-20.321-20.321h-20.32c-11.223 0-20.321 9.098-20.321 20.321v4.46l-24.11-33.753a20.322 20.322 0 00-33.062 0l-74.912 104.865L229.903 60.73a20.322 20.322 0 00-33.062 0l-24.11 33.753v-4.46c0-11.223-9.098-20.321-20.321-20.321h-20.32c-11.223 0-20.321 9.098-20.321 20.321v89.797L92.86 206.287c-6.525 9.12-4.429 21.802 4.684 28.337l16.592 11.867a20.177 20.177 0 007.793 3.322v105.668L6.467 461.291a20.097 20.097 0 00-6.188 13.574 8.47 8.47 0 00-.274 1.25v60.962a19.872 19.872 0 0020.321 20.321h568.979a19.872 19.872 0 0020.321-20.321v-60.962a9.116 9.116 0 00-.244-1.189 20.007 20.007 0 00-6.259-13.675zm-186.544-56.258h-50.802V323.71c0-5.611 4.549-10.16 10.16-10.16h30.481c5.611 0 10.16 4.549 10.16 10.16v81.283zm-10.16-111.764h-30.481c-16.834 0-30.481 13.647-30.481 30.481v81.283h-30.481c0-5.611-4.549-10.16-10.16-10.16s-10.16 4.549-10.16 10.16h-30.481V323.71c0-16.834-13.647-30.481-30.481-30.481h-30.481c-16.834 0-30.481 13.647-30.481 30.481v81.283H142.25V241.981c.071-.102.163-.163.224-.264l70.899-99.246 73.093 102.335a22.453 22.453 0 008.342 7.041c0 .264-.152.478-.152.742v10.16c0 5.611 4.549 10.16 10.16 10.16s10.16-4.549 10.16-10.16v-10.16c0-.264-.132-.478-.152-.742a22.461 22.461 0 008.342-7.041l73.093-102.335 70.899 99.256c.061.091.152.163.224.254v163.012H436.9V323.71c0-16.834-13.647-30.481-30.481-30.481zM243.853 404.993h-50.802V323.71c0-5.611 4.549-10.16 10.16-10.16h30.481c5.611 0 10.16 4.549 10.16 10.16v81.283zM457.22 90.023h20.321v61.348l-20.321-28.449zm-325.13 0h20.321v32.909l-20.321 28.449zm-22.688 128.02l103.97-145.506 83.183 116.437a10.504 10.504 0 0016.52 0l83.183-116.437 103.971 145.506-16.592 11.867-79.119-110.829a10.504 10.504 0 00-16.52 0l-81.344 113.887a2.345 2.345 0 01-3.668 0l-81.354-113.887a10.16 10.16 0 00-16.52 0L125.993 229.91zm32.848 207.271h325.131c11.223 0 20.321-9.098 20.321-20.321v-23.145l101.603 94.268-568.979.071v-.071l101.603-93.15v22.028c0 11.222 9.098 20.32 20.321 20.32zM20.326 537.077v-40.641h568.979v40.641z"/></svg>